<ttFont>
          <CharString index="0">
            324 -12 rmoveto
            156 112 136 208 118 callsubr
            -208 112 -136 156 hvcurveto
            30 vmoveto
            -140 -94 28 callsubr
            94 120 140 140 94 -120 -190 -190 -94 -124 -140 hvcurveto
            return
          </CharString>
          <CharString index="1">
            86 238 rmoveto
            124 78 100 102 50 44 -18 -48 54 vhcurveto
            -296 43 callgsubr
            -108 -60 90 132 hvcurveto
            -32 hmoveto
            -162 78 -88 120 66 54 36 40 40 vhcurveto
            2 hlineto
            return
          </CharString>
          <CharString index="2">
            rmoveto
            47 132 28 80 24 68 24 82 rlinecurve
            4 hlineto
            24 -82 24 -68 28 -80 46 -132 rcurveline
            92 -264 rmoveto
            34 hlineto
            -236 660 -52 callgsubr
            -236 -660 rlineto
            32 hlineto
            83 236 rlineto
            269 hlineto
            endchar
          </CharString>
          <CharString index="3">
            rmoveto
            38 100 23 62 18 48 21 61 rlinecurve
            4 hlineto
            21 -60 18 -48 23 -63 38 -100 rcurveline
            76 -204 rmoveto
            34 hlineto
            -198 510 rlineto
            -29 hlineto
            -197 -510 rlineto
            32 hlineto
            67 176 rlineto
            225 hlineto
            endchar
          </CharString>
          <CharString index="4">
            rmoveto
            44 14 44 20 50 vvcurveto
            50 -56 20 -58 2 vhcurveto
            -2 -26 rlineto
            54 -2 32 -16 -32 vvcurveto
            -30 -28 -16 -38 -12 vhcurveto
            return
          </CharString>
          <CharString index="5">
            rmoveto
            18 14 14 18 18 -58 callsubr
            -18 -18 14 -14 18 hvcurveto
            152 hmoveto
            18 14 14 18 18 -58 callsubr
            -18 -18 14 -14 18 hvcurveto
            return
          </CharString>
          <CharString index="6">
            30 -12 -32 vvcurveto
            -28 -38 -16 -56 -8 vhcurveto
            6 -26 rlineto
            60 8 58 24 50 vvcurveto
            40 -28 return
          </CharString>
          <CharString index="7">
            98 246 rmoveto
            -204 110 -54 106 106 112 54 204 vhcurveto
            414 -30 -406 vlineto
            -182 -90 -54 -98 -96 -88 54 182 vhcurveto
            406 -32 vlineto
            return
          </CharString>
          <CharString index="8">
            28 -184 rmoveto
            -8 -28 rlineto
            -6 12 18 -4 16 hhcurveto
            82 48 80 74 24 hvcurveto
            192 546 rlineto
            -32 hlineto
            -108 -314 -14 -40 -16 -52 -16 -42 rlinecurve
            -4 hlineto
            -18 42 -20 52 -16 40 -122 314 rcurveline
            -34 hlineto
            198 -490 -14 -44 rlineto
            -78 -26 -42 -58 -60 hhcurveto
            -14 -16 4 4 -10 hvcurveto
            return
          </CharString>
          <CharString index="9">
            80 30 68 48 39 callgsubr
            -44 -6 -28 -46 -56 hhcurveto
            -56 -28 46 44 -6 hvcurveto
            -26 hlineto
            -48 6 30 -68 80 hhcurveto
            return
          </CharString>
          <CharString index="10">
            56 332 rmoveto
            -208 110 -136 168 86 66 30 44 40 vhcurveto
            256 -196 -28 164 -218 vlineto
            -34 -34 -60 -20 -64 hhcurveto
            -154 -92 28 callsubr
            96 120 158 74 48 -32 -38 34 hvcurveto
            20 22 rlineto
            36 -34 -54 42 -88 hhcurveto
            -174 -114 115 callgsubr
            return
          </CharString>
          <CharString index="11">
            32 vstem
            48 88 rmoveto
            -58 50 72 -42 98 hhcurveto
            124 82 74 100 102 -67 39 -73 33 hvcurveto
            -102 46 rlineto
            -47 21 -69 31 82 vvcurveto
            76 62 50 92 68 54 -28 -42 38 vhcurveto
            20 22 rlineto
            41 -38 -62 37 -80 hhcurveto
            -106 -80 -64 -94 -98 78 -39 56 -25 hvcurveto
            102 -46 rlineto
            66 -30 56 -28 -88 vvcurveto
            -84 -68 -58 -106 -80 -70 36 56 -48 vhcurveto
            return
          </CharString>
          <CharString index="12">
            -98 callsubr
            endchar
          </CharString>
          <CharString index="13">
            32 vstem
            34 54 rmoveto
            -36 42 60 -30 72 hhcurveto
            100 56 62 70 94 -84 23 -76 29 hvcurveto
            -58 22 -58 22 58 vvcurveto
            47 36 47 80 50 34 -20 -24 32 vhcurveto
            18 24 rlineto
            28 -34 -50 20 -48 hhcurveto
            -98 -52 -58 -66 -82 82 -28 74 -26 hvcurveto
            56 -20 64 -28 -64 vvcurveto
            -54 -42 -48 -80 -72 -44 28 34 -40 vhcurveto
            return
          </CharString>
          <CharString index="14">
            rmoveto
            -102 -78 139 callsubr
            78 92 102 102 78 -92 -132 -132 -78 -90 -102 hvcurveto
            168 560 rmoveto
            10 -14 4 -12 -12 vvcurveto
            -39 -30 -22 -60 -9 vhcurveto
            14 -28 -31 8 -33 hhcurveto
            -35 callsubr
            -158 98 -92 158 callgsubr
            98 92 158 96 -35 72 -54 42 hvcurveto
            44 12 45 23 57 -71 callsubr
          </CharString>
          <CharString index="15">
            vstem
            184 hmoveto
            32 hlineto
            126 474 12 52 14 44 12 52 rlinecurve
            4 hlineto
            12 -52 12 -44 12 -52 128 -474 rcurveline
            32 hlineto
            152 660 rlineto
            -32 hlineto
            -88 -400 -16 -72 -14 -72 -16 -72 rlinecurve
            -4 hlineto
            -18 72 -18 72 -18 72 -108 400 rcurveline
            -36 hlineto
            -108 -400 -18 -72 -18 -72 -16 -72 rlinecurve
            -4 hlineto
            -16 72 -16 72 -16 72 -88 400 rcurveline
            -34 hlineto
            return
          </CharString>
          <CharString index="16">
            100 hmoveto
            364 -81 callgsubr
            return
          </CharString>
          <CharString index="17">
            86 52 74 134 132 -52 74 -86 -86 -52 -74 -132 -134 52 -74 86 hvcurveto
            26 vmoveto
            -66 -42 68 158 callgsubr
            42 66 66 66 42 -66 158 callsubr
            -42 -68 -66 hvcurveto
            return
          </CharString>
          <CharString index="18">
            vstem
            158 hmoveto
            33 hlineto
            104 356 10 41 11 34 10 40 rlinecurve
            4 hlineto
            10 -40 10 -34 10 -41 106 -356 rcurveline
            32 hlineto
            127 510 rlineto
            -31 hlineto
            -72 -302 -14 -56 -11 -56 -13 -55 rlinecurve
            -4 hlineto
            -16 55 -15 56 -15 56 -88 302 rcurveline
            -34 hlineto
            -89 -302 -15 -56 -16 -56 -14 -55 rlinecurve
            -3 hlineto
            -13 55 -14 56 -13 56 -72 302 rcurveline
            -33 hlineto
            return
          </CharString>
          <CharString index="19">
            202 hmoveto
            32 272 hlineto
            198 388 rlineto
            -32 hlineto
            -106 -214 -22 -48 -26 -46 -26 -48 rlinecurve
            -4 hlineto
            -26 48 -22 46 -24 48 -106 214 rcurveline
            -34 hlineto
            198 -388 rlineto
            return
          </CharString>
          <CharString index="20">
            -42 -24 58 -52 hhcurveto
            -44 -20 -48 -38 -2 hvcurveto
            22 hlineto
            34 4 16 24 22 hhcurveto
            return
          </CharString>
          <CharString index="21">
            96 hmoveto
            30 366 hlineto
            -78 callgsubr
            return
          </CharString>
          <CharString index="22">
            -54 callsubr
            hintmask 11011000
            -60 callsubr
            hintmask 11100100
            -51 callsubr
            hintmask 11011000
            -54 callgsubr
            hintmask 11100100
            -40 -22 -36 -40 -52 vvcurveto
            endchar
          </CharString>
          <CharString index="23">
            100 hmoveto
            30 325 hlineto
            48 -2 45 -2 49 vhcurveto
            4 hlineto
            62 -101 242 -366 rlineto
            34 510 -30 -321 hlineto
            -49 2 -48 2 -49 vhcurveto
            -4 hlineto
            -62 99 -242 368 rlineto
            -34 hlineto
            return
          </CharString>
          <CharString index="24">
            -26 44 20 26 10 12 14 vhcurveto
            -14 20 rlineto
            -10 -14 -12 -4 -18 hhcurveto
            -26 return
          </CharString>
          <CharString index="25">
            rmoveto
            18 16 14 22 20 -16 14 -18 -18 -16 -14 -20 -22 35 callsubr
          </CharString>
          <CharString index="26">
            28 -278 230 226 28 -226 196 268 28 -300 hlineto
            return
          </CharString>
          <CharString index="27">
            -140 -73 -40 -81 -81 -71 40 140 vhcurveto
            312 -32 return
          </CharString>
          <CharString index="28">
            88 170 rmoveto
            -124 46 -58 98 66 50 38 56 48 vhcurveto
            2 hlineto
            return
          </CharString>
          <CharString index="29">
            -26 callsubr
            94 134 -52 callgsubr
            -78 -102 117 callgsubr
            102 81 callgsubr
          </CharString>
          <CharString index="30">
            rmoveto
            -28 callgsubr
            18 14 14 22 20 -14 14 -18 hvcurveto
            return
          </CharString>
          <CharString index="31">
            rmoveto
            10 -14 4 -12 -12 vvcurveto
            -40 -30 -22 -66 -8 vhcurveto
            -2 -312 hlineto
            -62 callgsubr
          </CharString>
          <CharString index="32">
            rmoveto
            34 10 40 18 44 vvcurveto
            48 -48 16 -52 2 vhcurveto
            -4 -26 rlineto
            48 -2 26 -10 -32 vvcurveto
            -24 -24 -12 -30 -8 vhcurveto
            return
          </CharString>
          <CharString index="33">
            106 126 rmoveto
            -82 24 -56 88 16 30 8 10 28 vhcurveto
            -10 26 rlineto
            -8 -18 -26 -8 -18 hhcurveto
            -70 -14 44 62 hvcurveto
            328 142 28 -142 140 -26 vlineto
            -4 -140 -76 -4 rlineto
            -24 76 vlineto
            return
          </CharString>
          <CharString index="34">
            94 callsubr
            92 -92 122 62 50 28 36 40 vhcurveto
            -18 22 rlineto
            -32 -34 -46 -26 -54 hhcurveto
            -110 -72 139 callsubr
            80 92 102 50 38 -24 -30 32 hvcurveto
            20 22 rlineto
            30 -32 -42 30 -66 hhcurveto
            -114 -100 -92 -160 hvcurveto
            return
          </CharString>
          <CharString index="35">
            rmoveto
            -38 28 42 -36 68 hhcurveto
            72 58 52 82 88 -56 46 -72 -32 -24 -10 -12 -20 hvcurveto
            14 128 rlineto
            168 28 -194 hlineto
            -20 -184 20 -14 rlineto
            18 22 26 20 38 hhcurveto
            60 40 -42 -66 -64 -42 -44 -56 -54 -36 28 38 -26 hvcurveto
            return
          </CharString>
          <CharString index="36">
            vvcurveto
            18 -6 16 -12 18 vhcurveto
            endchar
          </CharString>
          <CharString index="37">
            250 26 -202 hlineto
            106 104 72 66 84 vvcurveto
            82 -48 40 -70 -48 -46 -34 -38 -22 169 callsubr
            34 22 34 30 38 hhcurveto
            54 36 -38 -60 -68 -58 -60 -138 -130 hvcurveto
            return
          </CharString>
          <CharString index="38">
            96 52 rmoveto
            -46 18 -18 30 12 6 2 2 8 vhcurveto
            -6 26 rlineto
            -2 -10 -4 0 -4 hhcurveto
            -12 -8 10 20 hvcurveto
            676 -30 vlineto
            return
          </CharString>
          <CharString index="39">
            rmoveto
            -44 hlineto
            -94 41 callsubr
            return
          </CharString>
          <CharString index="40">
            208 730 rmoveto
            10 -14 4 -12 -12 vvcurveto
            -38 -31 -23 -68 -9 vhcurveto
            21 -37 -41 11 -45 hhcurveto
            52 callgsubr
            112 -136 156 hvcurveto
            return
          </CharString>
          <CharString index="41">
            37 25 -56 48 hhcurveto
            47 15 47 35 168 callgsubr
            -34 -4 -12 -22 -22 hhcurveto
            return
          </CharString>
          <CharString index="42">
            rmoveto
            -40 40 56 -46 102 hhcurveto
            100 100 76 136 140 -86 62 -108 -50 -36 -15 -21 -34 hvcurveto
            22 246 rlineto
            258 28 -286 hlineto
            -24 -296 26 -16 rlineto
            26 38 34 18 50 hhcurveto
            100 64 -66 -108 -108 -78 -74 -88 -92 -50 40 40 -38 hvcurveto
            endchar
          </CharString>
          <CharString index="43">
            -22 14 -14 18 return
          </CharString>
          <CharString index="44">
            200 570 rmoveto
            10 -14 4 -12 -12 vvcurveto
            -37 -26 -22 -59 -9 vhcurveto
            26 -36 -44 14 -49 hhcurveto
            -133 -95 -103 -163 -163 95 -105 133 hvcurveto
            return
          </CharString>
          <CharString index="45">
            rmoveto
            -140 -94 28 callsubr
            94 120 140 140 94 -120 -190 -190 -94 -124 -140 hvcurveto
            return
          </CharString>
          <CharString index="46">
            110 10 68 61 105 vvcurveto
            122 -82 48 -130 vhcurveto
            -182 -660 32 312 148 hlineto
            186 -312 rlineto
            return
          </CharString>
          <CharString index="47">
            126 112 rmoveto
            -60 18 -48 26 48 vvcurveto
            42 36 30 44 46 38 -28 -42 -34 -18 -32 -38 -28 vhcurveto
            return
          </CharString>
          <CharString index="48">
            rmoveto
            44 20 48 38 2 hvcurveto
            -22 hlineto
            -34 -4 -16 -24 -22 hhcurveto
            return
          </CharString>
          <CharString index="49">
            -14 14 -44 callsubr
            -14 return
          </CharString>
          <CharString index="50">
            73 -12 -49 callgsubr
            return
          </CharString>
          <CharString index="51">
            34 vstem
            100 hmoveto
            148 hlineto
            204 92 136 196 196 -92 132 -204 hvcurveto
            -148 hlineto
            32 -632 rmoveto
            604 112 vlineto
            188 78 -126 -174 -174 -78 -130 -188 hvcurveto
            return
          </CharString>
          <CharString index="52">
            186 280 rmoveto
            -70 -62 58 84 86 60 54 72 72 60 -55 -85 -84 -62 -58 -70 hvcurveto
            return
          </CharString>
          <CharString index="53">
            rmoveto
            40 24 34 46 26 vhcurveto
            64 -24 62 -14 -62 vvcurveto
            -46 -44 -38 -54 -60 -38 42 42 vhcurveto
            return
          </CharString>
          <CharString index="54">
            4 -82 89 callgsubr
            -30 -358 hlineto
            return
          </CharString>
          <CharString index="55">
            rmoveto
            78 112 58 84 rlineto
            4 hlineto
            -4 -102 rlineto
            -94 vlineto
            86 hmoveto
            -58 246 -22 hlineto
            -182 -256 rlineto
            -16 176 return
          </CharString>
          <CharString index="56">
            -156 -114 rmoveto
            -58 50 -50 78 72 56 48 64 46 -26 28 -48 24 vhcurveto
            4 vlineto
            return
          </CharString>
          <CharString index="57">
            hstem
            98 32 44 64 88 64 46 30 vstem
            -98 callgsubr
            return
          </CharString>
          <CharString index="58">
            4 -64 89 callgsubr
            -28 hlineto
            return
          </CharString>
          <CharString index="59">
            34 vstem
            100 hmoveto
            126 hlineto
            172 80 103 153 153 -80 101 -172 hvcurveto
            -126 hlineto
            32 -484 rmoveto
            457 90 vlineto
            156 66 -94 -133 -143 -66 -87 -156 hvcurveto
            return
          </CharString>
          <CharString index="60">
            53 21 -39 callgsubr
            return
          </CharString>
          <CharString index="61">
            rmoveto
            370 684 rlineto
            -32 hlineto
            66 callsubr
            return
          </CharString>
          <CharString index="62">
            rmoveto
            -222 -28 222 hlineto
            endchar
          </CharString>
          <CharString index="63">
            -18 -18 -14 return
          </CharString>
          <CharString index="64">
            19 callgsubr
            308 vlineto
            124 return
          </CharString>
          <CharString index="65">
            36 18 -46 48 hhcurveto
            47 19 40 35 callgsubr
            -16 -22 return
          </CharString>
          <CharString index="66">
            43 -35 callgsubr
            return
          </CharString>
          <CharString index="67">
            -21 176 28 271 35 return
          </CharString>
          <CharString index="68">
            rlineto
            30 hlineto
            return
          </CharString>
          <CharString index="69">
            -38 26 48 -36 60 hhcurveto
            72 56 42 72 56 -46 34 -48 8 hvcurveto
            return
          </CharString>
          <CharString index="70">
            vstem
            52 hmoveto
            369 27 -329 hlineto
            325 465 rlineto
            18 -337 -27 297 vlineto
            -325 -465 rlineto
            return
          </CharString>
          <CharString index="71">
            96 hmoveto
            30 332 hlineto
            94 38 52 34 44 hhcurveto
            18 8 -2 -6 16 hvcurveto
            return
          </CharString>
          <CharString index="72">
            -114 -98 -92 -160 return
          </CharString>
          <CharString index="73">
            -13 callsubr
            hintmask 1111111110000000
            -25 callgsubr
            return
          </CharString>
          <CharString index="74">
            rmoveto
            42 20 30 44 46 vvcurveto
            36 -16 18 -24 -16 -16 -12 -22 -20 16 -8 16 3 4 0 1 3 vhcurveto
            -1 -38 -22 -29 -31 -14 rrcurveto
            endchar
          </CharString>
          <CharString index="75">
            52 hmoveto
            436 28 -396 hlineto
            392 614 rlineto
            18 -398 -28 358 vlineto
            -392 -614 rlineto
            return
          </CharString>
          <CharString index="76">
            54 238 rmoveto
            return
          </CharString>
          <CharString index="77">
            13 -234 28 208 32 118 28 270 28 -16 28 return
          </CharString>
          <CharString index="78">
            rmoveto
            292 138 vlineto
            122 68 -38 -104 -102 -68 -48 -122 hvcurveto
            return
          </CharString>
          <CharString index="79">
            0 2 callgsubr
            return
          </CharString>
          <CharString index="80">
            rmoveto
            -48 -34 -30 -46 -68 vvcurveto
            -38 16 -20 22 20 14 12 22 22 -18 10 -16 -3 -3 0 -1 -2 vhcurveto
            56 22 31 42 36 vhcurveto
            return
          </CharString>
          <CharString index="81">
            rmoveto
            28 hlineto
            return
          </CharString>
          <CharString index="82">
            rmoveto
            30 hlineto
            -94 104 rlineto
            -44 hlineto
            endchar
          </CharString>
          <CharString index="83">
            -20 -14 -32 -30 -44 vvcurveto
            -36 18 -26 24 -14 vhcurveto
            -4 vlineto
            return
          </CharString>
          <CharString index="84">
            -26 callsubr
            68 80 rlineto
            4 hlineto
            return
          </CharString>
          <CharString index="85">
            -103 262 28 278 74 callgsubr
            68 434 rmoveto
            76 74 callsubr
            vhcurveto
            -186 vlineto
            -32 -36 -30 -18 -32 hhcurveto
            -76 -34 56 88 hvcurveto
            -30 -2 rmoveto
            -108 52 -62 86 40 28 22 24 28 vhcurveto
            4 hlineto
            4 -38 rlineto
            24 316 -22 hlineto
            -4 -30 rlineto
            -4 hlineto
            24 -28 -30 14 -36 hhcurveto
            -76 -66 -62 -100 hvcurveto
            endchar
          </CharString>
          <CharString index="86">
            -36 -18 50 -48 hhcurveto
            -47 -19 -44 -32 -2 hvcurveto
            return
          </CharString>
          <CharString index="87">
            284 rmoveto
            -104 -42 74 96 94 58 76 78 113 53 -100 -139 7 hvcurveto
            -73 -55 -61 -28 -47 hhcurveto
            -164 -236 rmoveto
            -36 31 41 -24 56 hhcurveto
            122 110 92 272 190 -76 110 -128 -92 -78 -84 -114 -128 64 -70 112 62 59 36 55 45 hvcurveto
            -246 -1 -92 -85 -105 hhcurveto
            -42 -39 18 36 -29 hvcurveto
            endchar
          </CharString>
          <CharString index="88">
            rmoveto
            17 callgsubr
            138 callsubr
            return
          </CharString>
          <CharString index="89">
            11 callgsubr
            endchar
          </CharString>
          <CharString index="90">
            rmoveto
            221 113 vlineto
            102 56 -29 -79 -76 -52 -37 -106 hvcurveto
            return
          </CharString>
          <CharString index="91">
            24 hlineto
            35 4 12 21 22 hhcurveto
            return
          </CharString>
          <CharString index="92">
            11 17 callsubr
            return
          </CharString>
          <CharString index="93">
            -6 callsubr
            548 -30 hlineto
            return
          </CharString>
          <CharString index="94">
            -86 callgsubr
            -80 34 rmoveto
            30 4 16 20 22 hhcurveto
            return
          </CharString>
          <CharString index="95">
            -22 14 -12 18 18 14 12 22 22 -14 12 -44 callsubr
            -12 -22 vhcurveto
            return
          </CharString>
          <CharString index="96">
            vstem
            100 hmoveto
            32 180 hlineto
            118 120 184 -300 rlineto
            36 hlineto
            -198 322 178 188 rlineto
            -38 hlineto
            -278 -288 rlineto
            -2 288 -32 hlineto
            return
          </CharString>
          <CharString index="97">
            rmoveto
            147 callgsubr
            hintmask 11110111
            -29 callgsubr
            -228 -108 rmoveto
            -42 6 34 -56 70 hhcurveto
            86 callsubr
            return
          </CharString>
          <CharString index="98">
            rmoveto
            78 104 rlineto
            -38 hlineto
            -68 -104 rlineto
            140 hmoveto
            28 hlineto
            78 104 rlineto
            -38 hlineto
            endchar
          </CharString>
          <CharString index="99">
            30 vstem
            100 hmoveto
            30 344 hlineto
            41 -2 53 -2 42 vhcurveto
            4 hlineto
            42 -112 120 -312 rlineto
            32 hlineto
            119 312 41 112 rlineto
            4 hlineto
            -2 -44 0 -51 -41 vvcurveto
            -344 30 510 -48 vlineto
            -115 -304 -43 -114 rlineto
            -4 hlineto
            -42 114 -116 304 rlineto
            -48 hlineto
            return
          </CharString>
          <CharString index="100">
            rmoveto
            -202 146 -132 172 172 146 132 202 200 -146 130 -172 -172 -146 -130 -200 vhcurveto
            30 hmoveto
            182 134 122 154 154 134 -122 -182 -184 -134 -124 -154 -154 -134 124 184 vhcurveto
            return
          </CharString>
          <CharString index="101">
            64 callgsubr
            132 hlineto
            114 134 166 -266 rlineto
            34 hlineto
            -182 290 154 188 rlineto
            -36 hlineto
            -248 -304 rlineto
            -2 return
          </CharString>
          <CharString index="102">
            -11 0 28 230 28 196 57 callsubr
            return
          </CharString>
          <CharString index="103">
            vstem
            100 hmoveto
            290 28 -258 482 -32 hlineto
            return
          </CharString>
          <CharString index="104">
            96 hmoveto
            30 366 hlineto
            64 56 50 32 46 hhcurveto
            78 36 19 callgsubr
            366 vlineto
            64 56 48 32 48 hhcurveto
            78 36 -43 callsubr
            -48 58 -94 -54 -54 -38 -62 -56 vhcurveto
            60 -16 -38 40 -78 hhcurveto
            -52 -56 -38 -50 -44 hvcurveto
            -2 hlineto
            return
          </CharString>
          <CharString index="105">
            rmoveto
            6 156 rlineto
            48 -30 vlineto
            2 -204 rlineto
            endchar
          </CharString>
          <CharString index="106">
            99 callgsubr
            32 258 308 -258 32 510 -32 -224 -308 224 -32 hlineto
            return
          </CharString>
          <CharString index="107">
            156 112 136 208 129 -43 100 -70 57 hvcurveto
            return
          </CharString>
          <CharString index="108">
            28 310 119 callsubr
            return
          </CharString>
          <CharString index="109">
            rmoveto
            26 hlineto
            82 136 rlineto
            -36 hlineto
            56 -136 rmoveto
            26 hlineto
            82 136 rlineto
            -36 hlineto
            endchar
          </CharString>
          <CharString index="110">
            32 vstem
            236 -12 rmoveto
            120 66 122 212 212 -66 118 -120 -120 -66 -118 -212 -212 66 -122 120 hvcurveto
            28 vmoveto
            -94 -60 108 198 198 60 104 94 94 60 -104 -198 -198 -60 -108 -94 hvcurveto
            return
          </CharString>
          <CharString index="111">
            163 32 callgsubr
            return
          </CharString>
          <CharString index="112">
            704 -103 callsubr
            return
          </CharString>
          <CharString index="113">
            -389 -12 684 hstem
            -164 402 vstem
            -132 40 callsubr
            endchar
          </CharString>
          <CharString index="114">
            hstemhm
            54 32 328 30 return
          </CharString>
          <CharString index="115">
            -122 rmoveto
            21 callgsubr
            32 return
          </CharString>
          <CharString index="116">
            19 callsubr
            142 68 hstemhm
            78 68 -50 30 hintmask 11110000
            112 600 0 callgsubr
            hintmask 11101000
            -16 -600 rmoveto
            30 478 -30 hlineto
            endchar
          </CharString>
          <CharString index="117">
            -12 rmoveto
            116 70 96 202 200 -70 96 -116 -116 -70 -96 -200 -202 70 -96 116 hvcurveto
            28 vmoveto
            -94 -60 96 174 172 60 96 94 94 60 -96 -172 -174 -60 -96 -94 hvcurveto
            endchar
          </CharString>
          <CharString index="118">
            28 306 140 callsubr
            hstemhm
            158 114 92 32 -8 32 hintmask 11110100
            30 return
          </CharString>
          <CharString index="119">
            rmoveto
            96 104 rlineto
            -30 hlineto
            -78 -74 117 callgsubr
            74 rlineto
            -30 hlineto
            96 -104 rlineto
            return
          </CharString>
          <CharString index="120">
            208 hmoveto
            32 483 178 27 -388 -27 178 hlineto
            return
          </CharString>
          <CharString index="121">
            65 38 callsubr
            return
          </CharString>
          <CharString index="122">
            rmoveto
            -42 hlineto
            94 -96 rlineto
            28 hlineto
            36 -104 rmoveto
            18 14 14 18 18 -58 callsubr
            -18 -18 14 -14 18 hvcurveto
            -152 hmoveto
            18 14 14 18 18 -58 callsubr
            -18 -18 14 -14 18 hvcurveto
            endchar
          </CharString>
          <CharString index="123">
            132 96 105 163 88 -28 70 -46 46 hvcurveto
            return
          </CharString>
          <CharString index="124">
            -12 6 callgsubr
            return
          </CharString>
          <CharString index="125">
            97 31 callsubr
            return
          </CharString>
          <CharString index="126">
            -245 21 89 callsubr
            return
          </CharString>
          <CharString index="127">
            78 20 40 54 70 vvcurveto
            108 -82 52 -132 vhcurveto
            -172 hlineto
            32 -294 rmoveto
            266 126 vlineto
            128 68 -38 -90 -92 -58 -46 -144 hvcurveto
            -120 -338 rmoveto
            310 140 vlineto
            return
          </CharString>
          <CharString index="128">
            26 360 28 hstemhm
            50 48 callgsubr
            hintmask 11100100
            80 return
          </CharString>
          <CharString index="129">
            42 24 -58 52 hhcurveto
            return
          </CharString>
          <CharString index="130">
            43 callsubr
            478 -30 hlineto
            return
          </CharString>
          <CharString index="131">
            -235 49 callgsubr
            return
          </CharString>
          <CharString index="132">
            57 16 32 40 53 vvcurveto
            86 -70 39 -112 vhcurveto
            -146 hlineto
            32 -226 rmoveto
            200 103 vlineto
            106 56 -29 -68 -68 -48 -35 -119 hvcurveto
            -98 -258 rmoveto
            232 115 vlineto
            return
          </CharString>
          <CharString index="133">
            26 172 24 166 26 hstemhm
            258 30 -14 30 hintmask 11101000
            42 return
          </CharString>
          <CharString index="134">
            26 202 26 134 26 hstem
            52 30 202 30 vstem
            194 return
          </CharString>
          <CharString index="135">
            124 190 190 return
          </CharString>
          <CharString index="136">
            98 62 rmoveto
            -38 hlineto
            90 -110 rlineto
            26 hlineto
            endchar
          </CharString>
          <CharString index="137">
            rmoveto
            20 -16 138 164 rlineto
            28 vlineto
            -138 164 -20 -18 124 -160 rlineto
            return
          </CharString>
          <CharString index="138">
            -12 101 callgsubr
            return
          </CharString>
          <CharString index="139">
            rmoveto
            -103 callgsubr
            -152 hmoveto
            -103 callgsubr
            return
          </CharString>
          <CharString index="140">
            128 callsubr
            -42 hlineto
            -150 -194 -65 callgsubr
            endchar
          </CharString>
          <CharString index="141">
            133 -12 76 callgsubr
            return
          </CharString>
          <CharString index="142">
            16 -14 18 hvcurveto
            endchar
          </CharString>
          <CharString index="143">
            hstem
            326 32 vstem
            44 82 rmoveto
            -60 32 54 -34 70 hhcurveto
            116 42 82 104 hvcurveto
            486 -32 -482 vlineto
            -110 -40 -50 -84 -58 -40 22 58 -34 vhcurveto
            return
          </CharString>
          <CharString index="144">
            -4 96 rlineto
            4 hlineto
            86 -218 -39 callsubr
            86 218 rlineto
            4 hlineto
            -4 -96 rlineto
            -170 30 306 -44 vlineto
            -52 -130 -32 -88 rlineto
            -4 hlineto
            -32 88 return
          </CharString>
          <CharString index="145">
            -12 140 callgsubr
            return
          </CharString>
          <CharString index="146">
            hmoveto
            -103 callgsubr
            endchar
          </CharString>
          <CharString index="147">
            -12 -46 callsubr
            return
          </CharString>
          <CharString index="148">
            -104 -39 callsubr
            return
          </CharString>
          <CharString index="149">
            vstem
            56 332 rmoveto
            -208 110 -136 return
          </CharString>
          <CharString index="150">
            hstem
            63 callgsubr
            return
          </CharString>
          <CharString index="151">
            rmoveto
            52 32 40 54 68 vvcurveto
            38 -18 24 -26 -18 -18 -12 -24 -24 16 -12 20 4 4 0 1 4 vhcurveto
            -1 -56 -30 -41 -41 -24 rrcurveto
            endchar
          </CharString>
          <CharString index="152">
            rmoveto
            -404 162 rlineto
            -32 vlineto
            240 -94 132 -52 rlineto
            -4 vlineto
            -132 -52 -240 -94 rlineto
            -32 vlineto
            404 162 rlineto
            endchar
          </CharString>
          <CharString index="153">
            34 hlineto
            10 250 40 166 154 206 rrcurveto
            18 -386 -28 344 vlineto
            -130 -182 -56 -166 -10 -264 rrcurveto
            endchar
          </CharString>
          <CharString index="154">
            61 -12 77 callgsubr
            return
          </CharString>
          <CharString index="155">
            hstem
            100 99 callgsubr
            return
          </CharString>
          <CharString index="156">
            -190 70 120 return
          </CharString>
          <CharString index="157">
            404 -162 rlineto
            32 vlineto
            -240 94 -132 52 rlineto
            4 vlineto
            132 52 240 94 rlineto
            32 vlineto
            -404 -162 rlineto
            endchar
          </CharString>
          <CharString index="158">
            -47 -19 -40 159 callgsubr
          </CharString>
          <CharString index="159">
            -43 -222 30 670 -20 return
          </CharString>
          <CharString index="160">
            550 -103 callsubr
            return
          </CharString>
          <CharString index="161">
            hstemhm
            88 30 280 30 return
          </CharString>
          <CharString index="162">
            rmoveto
            hintmask 11011000
            -78 -74 rlineto
            -4 hlineto
            hintmask 10101000
            -78 74 rlineto
            -30 hlineto
            hintmask 11011000
            96 -104 rlineto
            28 hlineto
            hintmask 10101000
            96 104 rlineto
            endchar
          </CharString>
          <CharString index="163">
            88 -59 callsubr
            return
          </CharString>
          <CharString index="164">
            28 hstem
            100 32 vstem
            -91 callgsubr
            return
          </CharString>
          <CharString index="165">
            vstem
            82 498 rmoveto
            20 hlineto
            24 132 8 64 -52 callgsubr
            return
          </CharString>
          <CharString index="166">
            -26 hlineto
            -44 6 28 -52 80 hhcurveto
            -118 128 rmoveto
            24 hlineto
            return
          </CharString>
          <CharString index="167">
            22 callsubr
            44 20 48 38 2 hvcurveto
            return
          </CharString>
          <CharString index="168">
            vstem
            56 256 rmoveto
            -164 93 -104 return
          </CharString>
          <CharString index="169">
            -26 callgsubr
            28 return
          </CharString>
          <CharString index="170">
            -206 26 168 return
          </CharString>
          <CharString index="171">
            rmoveto
            184 vlineto
            34 36 38 20 32 hhcurveto
            72 30 -56 -78 -88 -46 -58 -62 -28 -38 12 30 -34 hvcurveto
            endchar
          </CharString>
          <CharString index="172">
            34 vstem
            180 74 87 callsubr
            return
          </CharString>
          <CharString index="173">
            -370 -684 rlineto
            return
          </CharString>
          <CharString index="174">
            vvcurveto
            82 -54 68 -96 -68 -50 -34 -42 -38 169 callsubr
            42 34 50 24 50 hhcurveto
            84 36 -60 -64 return
          </CharString>
          <CharString index="175">
            814 -68 callsubr
            return
          </CharString>
          <CharString index="176">
            -44 -32 -28 -44 -42 vvcurveto
            return
          </CharString>
          <CharString index="177">
            -26 callgsubr
            30 return
          </CharString>
          <CharString index="178">
            28 30 28 hstemhm
            return
          </CharString>
          <CharString index="179">
            26 362 97 callgsubr
            vstem
            180 return
          </CharString>
          <CharString index="180">
            59 126 callsubr
            return
          </CharString>
          <CharString index="181">
            50 58 60 30 34 -12 -30 34 return
          </CharString>
          <CharString index="182">
            28 632 -20 hstem
            100 32 return
          </CharString>
          <CharString index="183">
            28 482 -20 hstem
            100 32 return
          </CharString>
          <CharString index="184">
            262 26 280 26 hstem
            return
          </CharString>
          <CharString index="185">
            -66 -132 hvcurveto
            return
          </CharString>
          <CharString index="186">
            -173 234 30 hstem
            40 216 vstem
            40 234 rmoveto
            216 30 -216 hlineto
            endchar
          </CharString>
          <CharString index="187">
            rlineto
            4 hlineto
            78 return
          </CharString>
          <CharString index="188">
            -36 -6 -28 -34 -54 hhcurveto
            -54 -28 34 36 -6 hvcurveto
            return
          </CharString>
          <CharString index="189">
            142 82 -48 -100 -112 -86 -50 -138 hvcurveto
            return
          </CharString>
          <CharString index="190">
            2 -90 rlineto
            38 -50 -40 22 -58 hhcurveto
            return
          </CharString>
          <CharString index="191">
            404 28 -404 hlineto
            return
          </CharString>
          <CharString index="192">
            -4 76 rlineto
            -26 hlineto
            return
          </CharString>
          <CharString index="193">
            108 callsubr
            -26 hlineto
            -36 -8 -24 -36 -52 hhcurveto
            -52 -24 36 36 -8 hvcurveto
            return
          </CharString>
          <CharString index="194">
            rmoveto
            20 16 -124 162 124 160 -20 18 -138 -164 rlineto
            -28 vlineto
            return
          </CharString>
          <CharString index="195">
            312 128 vlineto
            142 68 -36 -116 -114 -68 -46 -142 hvcurveto
            endchar
          </CharString>
          <CharString index="196">
            -21 478 -20 return
          </CharString>
          <CharString index="197">
            26 180 26 return
          </CharString>
          <CharString index="198">
            rmoveto
            502 2 hlineto
            -248 470 rlineto
            -4 hlineto
            -250 -470 rlineto
            endchar
          </CharString>
          <CharString index="199">
            rmoveto
            26 hlineto
            6 140 rlineto
            60 -38 -60 vlineto
            return
          </CharString>
          <CharString index="200">
            126 80 50 99 70 -53 41 -71 12 hvcurveto
            return
          </CharString>
          <CharString index="201">
            vstem
            -31 callsubr
            -158 return
          </CharString>
          <CharString index="202">
            297 0 44 578 38 return
          </CharString>
          <CharString index="203">
            100 hmoveto
            32 510 -32 hlineto
            return
          </CharString>
          <CharString index="204">
            190 0 41 430 39 return
          </CharString>
          <CharString index="205">
            -202 28 162 return
          </CharString>
          <CharString index="206">
            21 -21 510 return
          </CharString>
          <CharString index="207">
            30 642 -20 return
          </CharString>
          <CharString index="208">
            7 callgsubr
            68 104 hstemhm
            56 34 388 34 -14 30 hintmask 11111000
            return
          </CharString>
          <CharString index="209">
            173 133 callgsubr
            68 30 vstem
            return
          </CharString>
          <CharString index="210">
            vmoveto
            42 36 32 48 48 -36 32 -42 -44 -34 -32 -48 -48 34 -32 44 hvcurveto
            return
          </CharString>
          <CharString index="211">
            26 hstem
            142 30 vstem
            142 return
          </CharString>
          <CharString index="212">
            526 hstem
            66 30 vstem
            152 return
          </CharString>
          <CharString index="213">
            22 hstem
            146 24 vstem
            170 return
          </CharString>
          <CharString index="214">
            hstem
            -110 220 vstem
            return
          </CharString>
          <CharString index="215">
            70 34 56 42 6 hvcurveto
            return
          </CharString>
          <CharString index="216">
            rmoveto
            165 callgsubr
            42 32 48 40 30 hvcurveto
            return
          </CharString>
          <CharString index="217">
            -74 -50 rlineto
            296 -30 -314 vlineto
            -66 -44 rlineto
            -32 vlineto
            66 44 rlineto
            return
          </CharString>
          <CharString index="218">
            26 350 26 hstem
            254 30 vstem
            58 return
          </CharString>
          <CharString index="219">
            -40 -60 hvcurveto
            -198 28 204 vlineto
            70 return
          </CharString>
          <CharString index="220">
            6 callgsubr
            hstem
            54 32 return
          </CharString>
          <CharString index="221">
            92 146 146 return
          </CharString>
          <CharString index="222">
            -12 170 callgsubr
            return
          </CharString>
          <CharString index="223">
            -24 18 -14 18 return
          </CharString>
          <CharString index="224">
            26 -18 14 -18 return
          </CharString>
          <CharString index="225">
            208 -112 132 -156 -58 callgsubr
            return
          </CharString>
          <CharString index="226">
            28 266 28 return
          </CharString>
          <CharString index="227">
            28 196 28 return
          </CharString>
          <CharString index="228">
            26 232 26 200 26 hstemhm
            100 32 265 31 4 31 return
          </CharString>
          <CharString index="229">
            164 callgsubr
            96 30 328 32 return
          </CharString>
          <CharString index="230">
            rmoveto
            -38 hlineto
            86 -108 rlineto
            28 hlineto
            return
          </CharString>
          <CharString index="231">
            25 21 154 callsubr
            return
          </CharString>
          <CharString index="232">
            62 callsubr
            446 28 return
          </CharString>
          <CharString index="233">
            21 84 callgsubr
            return
          </CharString>
          <CharString index="234">
            rmoveto
            -220 -28 220 hlineto
            return
          </CharString>
          <CharString index="235">
            -26 callsubr
            94 96 rlineto
            return
          </CharString>
          <CharString index="236">
            68 hstem
            44 64 vstem
            44 return
          </CharString>
          <CharString index="237">
            64 88 64 vstem
            return
          </CharString>
          <CharString index="238">
            28 604 28 return
          </CharString>
          <CharString index="239">
            22 -22 60 hstemhm
            174 30 hintmask 10110000
            174 hmoveto
            30 return
          </CharString>
          <CharString index="240">
            270 432 75 callgsubr
            29 return
          </CharString>
          <CharString index="241">
            -21 442 28 114 28 -28 138 hstemhm
            96 30 return
          </CharString>
          <CharString index="242">
            -36 -18 46 -48 hhcurveto
            51 callsubr
          </CharString>
          <CharString index="243">
            -20 43 callsubr
            return
          </CharString>
          <CharString index="244">
            -12 28 608 28 return
          </CharString>
          <CharString index="245">
            -90 -98 -39 callsubr
            return
          </CharString>
          <CharString index="246">
            90 132 132 return
          </CharString>
          <CharString index="247">
            30 272 28 return
          </CharString>
          <CharString index="248">
            230 206 28 -206 196 248 28 return
          </CharString>
          <CharString index="249">
            117 114 callgsubr
            return
          </CharString>
          <CharString index="250">
            310 250 28 -250 266 302 28 return
          </CharString>
          <CharString index="251">
            -41 callsubr
            118 30 return
          </CharString>
          <CharString index="252">
            vlineto
            64 62 44 90 callgsubr
            34 -52 -106 hvcurveto
            return
          </CharString>
          <CharString index="253">
            -40 28 -20 50 -12 vhcurveto
            endchar
          </CharString>
          <CharString index="254">
            71 callsubr
            56 34 return
          </CharString>
          <CharString index="255">
            -22 46 hhcurveto
            114 98 return
          </CharString>
          <CharString index="256">
            28 36 26 20 26 hstemhm
            return
          </CharString>
          <CharString index="257">
            21 -21 196 28 358 58 0 -20 hstemhm
            return
          </CharString>
          <CharString index="258">
            vvcurveto
            161 callsubr
            return
          </CharString>
          <CharString index="259">
            181 125 callgsubr
            return
          </CharString>
          <CharString index="260">
            22 86 32 86 22 hintmask 11011110
            return
          </CharString>
          <CharString index="261">
            -21 235 27 221 27 return
          </CharString>
          <CharString index="262">
            173 32 callgsubr
            return
          </CharString>
          <CharString index="263">
            vhcurveto
            -4 vlineto
            hintmask 11100100
            return
          </CharString>
          <CharString index="264">
            -197 -152 22 return
          </CharString>
          <CharString index="265">
            -114 -114 return
          </CharString>
          <CharString index="266">
            hintmask 11011100
            136 -32 vlineto
            hintmask 11101100
            -136 return
          </CharString>
          <CharString index="267">
            101 70 callsubr
            474 30 return
          </CharString>
          <CharString index="268">
            -54 36 -26 44 20 26 10 12 14 vhcurveto
            return
          </CharString>
          <CharString index="269">
            28 hstem
            98 30 230 32 vstem
            128 return
          </CharString>
          <CharString index="270">
            120 callgsubr
            722 -20 hstem
            96 30 return
          </CharString>
          <CharString index="271">
            44 30 40 30 36 vhcurveto
            478 -30 vlineto
            return
          </CharString>
          <CharString index="272">
            rmoveto
            116 callsubr
            18 18 14 24 vhcurveto
            return
          </CharString>
          <CharString index="273">
            rmoveto
            24 -18 14 -18 -44 callsubr
            -24 vhcurveto
            return
          </CharString>
          <CharString index="274">
            26 30 26 hstemhm
            return
          </CharString>
          <CharString index="275">
            hvcurveto
            -32 -2 rmoveto
            return
          </CharString>
          <CharString index="276">
            vhcurveto
            20 -18 rlineto
            return
          </CharString>
          <CharString index="277">
            46 568 46 return
          </CharString>
        <CharString name=".notdef">
          157 0 32 594 34 hstem
          96 38 354 40 vstem
          96 hmoveto
          432 660 -432 hlineto
          38 -586 rmoveto
          536 vlineto
          154 -270 rlineto
          48 hmoveto
          152 270 rlineto
          -536 vlineto
          -344 -42 rmoveto
          102 176 64 106 rlineto
          4 hlineto
          62 -106 100 -176 rlineto
          -166 334 rmoveto
          -56 92 -94 168 rlineto
          302 hlineto
          -94 -168 -54 -92 rlineto
          endchar
        </CharString>
        <CharString name="A">
          -47 callsubr
          hstem
          10 500 vstem
          135 264 -105 callsubr
        </CharString>
        <CharString name="A.sc">
          -47 callgsubr
          hstem
          10 424 vstem
          120 204 -104 callsubr
        </CharString>
        <CharString name="A.sups">
          -124 419 25 230 28 hstem
          3 338 vstem
          93 444 rmoveto
          29 81 18 52 15 44 16 53 rlinecurve
          2 hlineto
          16 -51 15 -45 18 -53 28 -81 rcurveline
          60 -174 rmoveto
          31 hlineto
          -154 432 rlineto
          -29 hlineto
          -155 -432 rlineto
          29 hlineto
          53 149 rlineto
          174 hlineto
          endchar
        </CharString>
        <CharString name="AE">
          337 0 28 198 28 84 119 callsubr
          hstem
          414 32 vstem
          203 254 rmoveto
          77 138 44 82 44 80 42 76 rlinecurve
          4 -376 hlineto
          32 -226 rmoveto
          143 callsubr
          -350 vlineto
          -372 -660 rlineto
          34 hlineto
          127 226 rlineto
          227 -226 344 28 hlineto
          endchar
        </CharString>
        <CharString name="AE.sc">
          221 0 28 140 28 62 120 callsubr
          hstem
          352 32 vstem
          177 196 rmoveto
          63 104 36 62 38 63 35 57 rlinecurve
          3 -286 hlineto
          32 -168 rmoveto
          141 callsubr
          -296 vlineto
          -310 -510 rlineto
          32 hlineto
          102 168 rlineto
          192 -168 290 28 hlineto
          endchar
        </CharString>
        <CharString name="Aacute">
          -47 callsubr
          50 104 hstem
          10 500 vstem
          366 68 callsubr
          -123 -446 -105 callsubr
        </CharString>
        <CharString name="Aacute.sc">
          -47 callgsubr
          80 104 hstem
          10 424 vstem
          328 694 -68 callsubr
          -100 -386 -104 callsubr
        </CharString>
        <CharString name="Abreve">
          -47 callsubr
          52 26 hstem
          148 26 vstem
          346 814 -12 callgsubr
          -237 -550 -105 callsubr
        </CharString>
        <CharString name="Abreve.sc">
          -47 callgsubr
          82 26 hstem
          110 26 vstem
          308 694 -12 callgsubr
          -214 -490 -104 callsubr
        </CharString>
        <CharString name="Acircumflex">
          -47 callsubr
          124 30 hstem
          10 500 vstem
          258 784 rmoveto
          4 hlineto
          78 -74 -39 callsubr
          -96 104 -52 callgsubr
          -96 41 callsubr
          -45 -446 -105 callsubr
        </CharString>
        <CharString name="Acircumflex.sc">
          -47 callgsubr
          154 30 hstem
          10 424 vstem
          220 664 rmoveto
          4 hlineto
          78 -74 -39 callsubr
          -96 104 -52 callgsubr
          -96 41 callsubr
          -22 -386 -104 callsubr
        </CharString>
        <CharString name="Adieresis">
          -47 callsubr
          68 64 hstem
          152 130 callsubr
          336 728 32 callsubr
          -49 -464 -105 callsubr
        </CharString>
        <CharString name="Adieresis.sc">
          -47 callgsubr
          98 64 hstem
          114 130 callsubr
          298 608 32 callsubr
          -26 -404 -104 callsubr
        </CharString>
        <CharString name="Agrave">
          -47 callsubr
          50 104 hstem
          10 500 vstem
          292 710 34 callgsubr
          -127 -446 -105 callsubr
        </CharString>
        <CharString name="Agrave.sc">
          -47 callgsubr
          80 104 hstem
          10 424 vstem
          254 590 34 callgsubr
          -104 -386 -104 callsubr
        </CharString>
        <CharString name="Amacron">
          -47 callsubr
          76 28 hstem
          10 500 vstem
          370 764 127 callsubr
          -235 -472 -105 callsubr
        </CharString>
        <CharString name="Amacron.sc">
          -47 callgsubr
          106 28 hstem
          10 424 vstem
          332 644 127 callsubr
          -212 -412 -104 callsubr
        </CharString>
        <CharString name="Aogonek">
          53 -202 28 195 -39 callgsubr
          hstem
          408 30 vstem
          135 264 rmoveto
          47 132 28 80 24 68 24 82 rlinecurve
          4 hlineto
          24 -82 24 -68 28 -80 46 -132 rcurveline
          150 -424 109 callsubr
          -236 660 -52 callgsubr
          -236 -660 rlineto
          32 hlineto
          83 236 rlineto
          269 hlineto
          82 -236 rlineto
          2 hlineto
          -36 -26 -34 -48 142 callgsubr
          endchar
        </CharString>
        <CharString name="Aogonek.sc">
          -23 -202 28 195 -40 callsubr
          hstem
          332 30 vstem
          120 204 rmoveto
          38 100 23 62 18 48 21 61 rlinecurve
          4 hlineto
          21 -60 18 -48 23 -63 38 -100 rcurveline
          134 -364 109 callsubr
          -198 510 rlineto
          -29 hlineto
          -197 -510 rlineto
          32 hlineto
          67 176 rlineto
          225 hlineto
          66 -176 rlineto
          2 hlineto
          -36 -26 -34 -48 142 callgsubr
          endchar
        </CharString>
        <CharString name="Aring">
          -47 callsubr
          40 22 116 22 hstem
          182 24 106 26 vstem
          260 838 33 callgsubr
          -125 -436 -105 callsubr
        </CharString>
        <CharString name="Aring.sc">
          -47 callgsubr
          70 22 116 22 hstem
          144 24 106 26 vstem
          222 718 33 callgsubr
          -102 -376 -104 callsubr
        </CharString>
        <CharString name="Atilde">
          -47 callsubr
          58 71 callsubr
          136 100 callgsubr
          vstemhm
          362 804 rmoveto
          -34 -4 -16 -24 -22 hhcurveto
          hintmask 11101110
          -87 callsubr
          hintmask 11111110
          60 callsubr
          -249 -540 -105 callsubr
        </CharString>
        <CharString name="Atilde.sc">
          -47 callgsubr
          88 71 callsubr
          98 100 callgsubr
          vstemhm
          324 684 rmoveto
          -34 -4 -16 -24 -22 hhcurveto
          hintmask 11101110
          -87 callsubr
          hintmask 11111110
          60 callsubr
          -226 -480 -104 callsubr
        </CharString>
        <CharString name="B">
          107 -35 callgsubr
          hstemhm
          100 32 322 32 10 32 hintmask 11110100
          100 hmoveto
          184 hlineto
          83 callgsubr
          4 vlineto
          hintmask 11111100
          20 callsubr
          hintmask 11110100
          82 callsubr
          endchar
        </CharString>
        <CharString name="B.sc">
          42 0 121 callsubr
          hintmask 11110100
          100 hmoveto
          157 hlineto
          93 callsubr
          4 vlineto
          hintmask 11111000
          25 callsubr
          hintmask 11110100
          93 callgsubr
          endchar
        </CharString>
        <CharString name="B.sups">
          -88 270 24 194 24 166 24 hstemhm
          63 29 204 29 -2 29 hintmask 11110100
          63 270 rmoveto
          126 hlineto
          99 64 42 84 60 -40 35 -65 10 hvcurveto
          3 vlineto
          hintmask 11111000
          51 12 27 36 45 vvcurveto
          72 -56 33 -88 vhcurveto
          -118 hlineto
          29 -190 rmoveto
          166 81 vlineto
          81 42 -24 -56 -58 -36 -28 -91 hvcurveto
          -77 -218 rmoveto
          194 89 vlineto
          hintmask 11110100
          90 52 -30 -63 -73 -54 -28 -88 hvcurveto
          endchar
        </CharString>
        <CharString name="C">
          95 44 callgsubr
          hstem
          56 34 -79 callgsubr
          endchar
        </CharString>
        <CharString name="C.sc">
          23 25 callgsubr
          hstem
          56 34 -74 callgsubr
          endchar
        </CharString>
        <CharString name="C.sups">
          -98 262 26 397 25 hstem
          34 31 vstem
          34 487 rmoveto
          -138 76 -87 108 56 40 24 37 32 vhcurveto
          -17 18 rlineto
          -34 -31 -34 -19 -45 hhcurveto
          -95 -59 78 122 119 60 78 97 39 32 -18 -27 24 hvcurveto
          18 19 rlineto
          27 -24 -39 24 -51 hhcurveto
          -111 -76 -87 -136 hvcurveto
          endchar
        </CharString>
        <CharString name="Cacute">
          95 44 callgsubr
          hstem
          56 34 -79 callgsubr
          370 482 -68 callsubr
          endchar
        </CharString>
        <CharString name="Cacute.sc">
          23 25 callgsubr
          hstem
          56 34 -74 callgsubr
          335 438 -68 callsubr
          endchar
        </CharString>
        <CharString name="Ccaron">
          95 44 callgsubr
          38 30 hstem
          56 34 -79 callgsubr
          344 482 -93 callgsubr
        </CharString>
        <CharString name="Ccaron.sc">
          23 25 callgsubr
          68 30 hstem
          56 34 -74 callgsubr
          309 438 -93 callgsubr
        </CharString>
        <CharString name="Ccedilla">
          95 63 callsubr
          30 624 30 hstem
          56 34 272 30 vstem
          502 102 rmoveto
          -56 -50 -52 -28 -70 hhcurveto
          -148 -92 28 callsubr
          92 120 152 62 50 -28 -42 36 hvcurveto
          20 22 rlineto
          40 -34 -58 38 -76 hhcurveto
          -168 -110 -132 -208 -207 109 -136 162 -1 hvcurveto
          -33 -62 rlineto
          38 -10 -101 callsubr
          18 -32 10 vhcurveto
          23 45 72 7 51 34 44 52 rlinecurve
          endchar
        </CharString>
        <CharString name="Ccedilla.sc">
          23 63 callsubr
          78 callgsubr
          hstem
          56 34 218 30 vstem
          430 82 rmoveto
          -44 -40 -43 -20 -59 hhcurveto
          -123 -75 92 146 145 75 91 127 52 40 -22 -32 30 hvcurveto
          20 22 rlineto
          32 -30 -48 30 -64 hhcurveto
          -142 -94 -104 -162 -158 87 -103 130 -7 hvcurveto
          -33 -62 rlineto
          38 -10 -101 callsubr
          18 -32 10 vhcurveto
          23 44 64 4 44 25 41 45 rlinecurve
          endchar
        </CharString>
        <CharString name="Ccircumflex">
          95 44 callgsubr
          112 30 hstem
          56 34 -79 callgsubr
          184 378 -96 callgsubr
          endchar
        </CharString>
        <CharString name="Ccircumflex.sc">
          23 25 callgsubr
          142 30 hstem
          56 34 -74 callgsubr
          149 334 -96 callgsubr
          endchar
        </CharString>
        <CharString name="Cdotaccent">
          95 44 callgsubr
          52 70 hstem
          56 34 196 68 -79 callgsubr
          264 392 -82 callsubr
        </CharString>
        <CharString name="Cdotaccent.sc">
          23 25 callgsubr
          82 70 hstem
          56 34 161 68 -74 callgsubr
          229 348 -82 callsubr
        </CharString>
        <CharString name="D">
          133 66 callgsubr
          hstem
          100 32 378 -56 callsubr
          endchar
        </CharString>
        <CharString name="D.sc">
          67 0 26 457 27 hstem
          100 32 312 -48 callsubr
          endchar
        </CharString>
        <CharString name="D.sups">
          -69 270 25 382 25 hstem
          63 29 240 31 98 callgsubr
          102 hlineto
          134 64 87 131 129 -64 85 -134 hvcurveto
          -102 hlineto
          29 -407 rmoveto
          382 70 vlineto
          118 52 -76 -113 -114 -51 -79 -116 hvcurveto
          endchar
        </CharString>
        <CharString name="Dcaron">
          133 66 callgsubr
          50 30 hstem
          100 32 378 -56 callsubr
          136 786 -93 callgsubr
        </CharString>
        <CharString name="Dcaron.sc">
          67 0 26 457 27 80 30 hstem
          100 32 312 -48 callsubr
          131 668 -93 callgsubr
        </CharString>
        <CharString name="Dcroat">
          -22 callgsubr
        </CharString>
        <CharString name="Dcroat.sc">
          -14 callgsubr
        </CharString>
        <CharString name="E">
          43 0 28 310 28 266 57 callgsubr
          endchar
        </CharString>
        <CharString name="E.sc">
          -5 callsubr
          endchar
        </CharString>
        <CharString name="E.sups">
          -130 270 25 193 25 164 25 75 callgsubr
          245 25 -216 193 177 25 -177 164 210 25 -239 hlineto
          endchar
        </CharString>
        <CharString name="Eacute">
          -41 callsubr
          -28 182 hstemhm
          100 32 hintmask 11101000
          -91 callsubr
          hintmask 11011000
          287 154 -68 callsubr
          endchar
        </CharString>
        <CharString name="Eacute.sc">
          -5 callsubr
          267 184 -68 callsubr
          endchar
        </CharString>
        <CharString name="Ebreve">
          -41 callsubr
          52 26 hstem
          100 32 37 26 vstem
          -91 callsubr
          181 52 rmoveto
          -80 callgsubr
        </CharString>
        <CharString name="Ebreve.sc">
          -40 callgsubr
          82 26 hstemhm
          100 32 17 26 hintmask 11111000
          -91 callgsubr
          hintmask 11111100
          161 82 rmoveto
          -80 callgsubr
        </CharString>
        <CharString name="Ecaron">
          -41 callsubr
          -28 182 -104 30 hstemhm
          100 32 hintmask 11100100
          -91 callsubr
          hintmask 11010100
          261 154 rmoveto
          hintmask 11101100
          -78 -74 rlineto
          -4 hlineto
          hintmask 11010100
          -78 74 rlineto
          -30 hlineto
          hintmask 11101100
          96 -104 rlineto
          28 hlineto
          hintmask 11010100
          96 104 rlineto
          endchar
        </CharString>
        <CharString name="Ecaron.sc">
          -40 callgsubr
          80 30 hstem
          100 32 vstem
          -91 callgsubr
          241 184 -93 callgsubr
        </CharString>
        <CharString name="Ecircumflex">
          -41 callsubr
          124 30 hstem
          100 32 vstem
          -91 callsubr
          101 50 -96 callgsubr
          endchar
        </CharString>
        <CharString name="Ecircumflex.sc">
          -40 callgsubr
          154 30 hstem
          100 32 vstem
          -91 callgsubr
          81 80 -96 callgsubr
          endchar
        </CharString>
        <CharString name="Edieresis">
          -41 callsubr
          -28 160 hstemhm
          100 32 41 64 88 64 hintmask 11101000
          -91 callsubr
          hintmask 11011110
          105 68 rmoveto
          -103 callgsubr
          152 39 callsubr
        </CharString>
        <CharString name="Edieresis.sc">
          -40 callgsubr
          98 64 hstemhm
          100 32 21 64 88 64 hintmask 11101000
          -91 callgsubr
          hintmask 11111110
          85 98 rmoveto
          -103 callgsubr
          152 39 callsubr
        </CharString>
        <CharString name="Edotaccent">
          -41 callsubr
          64 70 hstem
          100 32 115 68 vstem
          -91 callsubr
          181 64 -82 callsubr
        </CharString>
        <CharString name="Edotaccent.sc">
          -40 callgsubr
          94 70 hstem
          100 32 95 68 vstem
          -91 callgsubr
          161 94 -82 callsubr
        </CharString>
        <CharString name="Egrave">
          -41 callsubr
          -28 182 hstemhm
          100 32 hintmask 11101000
          -91 callsubr
          183 50 rmoveto
          30 hlineto
          hintmask 11011000
          -94 104 rlineto
          -44 hlineto
          endchar
        </CharString>
        <CharString name="Egrave.sc">
          -5 callsubr
          163 80 -25 callsubr
        </CharString>
        <CharString name="Emacron">
          36 callgsubr
          71 76 -65 callgsubr
          endchar
        </CharString>
        <CharString name="Emacron.sc">
          37 callgsubr
          51 106 -65 callgsubr
          endchar
        </CharString>
        <CharString name="Eogonek">
          43 -202 28 174 1 callsubr
          hstem
          100 32 204 30 vstem
          100 hmoveto
          308 hlineto
          -40 -26 -32 -46 -50 vvcurveto
          -54 36 -83 callsubr
          -26 18 36 60 51 50 45 10 hvcurveto
          2 -81 callgsubr
          endchar
        </CharString>
        <CharString name="Eogonek.sc">
          -11 -202 28 174 2 callgsubr
          hstem
          100 32 150 30 vstem
          100 hmoveto
          254 hlineto
          -40 -26 -32 -46 -50 vvcurveto
          -54 36 -83 callsubr
          -26 18 36 60 51 50 45 10 hvcurveto
          2 -81 callsubr
          endchar
        </CharString>
        <CharString name="Eth">
          -22 callgsubr
        </CharString>
        <CharString name="Eth.sc">
          -14 callgsubr
        </CharString>
        <CharString name="Euro">
          5 -12 28 234 28 80 28 238 28 hstem
          86 34 vstem
          446 100 rmoveto
          -56 -41 -41 -28 -58 hhcurveto
          -102 -64 91 143 -16 hvcurveto
          246 28 -249 hlineto
          -1 14 0 15 15 vvcurveto
          12 0 12 1 12 vhcurveto
          289 28 -287 hlineto
          147 15 70 91 112 hhcurveto
          48 38 -28 -42 30 hvcurveto
          22 20 rlineto
          40 -28 -50 38 -60 hhcurveto
          -128 -86 -101 -165 -17 hvcurveto
          -65 -4 rlineto
          -24 63 vlineto
          -1 -12 0 -12 -12 vvcurveto
          -15 0 -15 1 -14 vhcurveto
          -63 -4 rlineto
          -24 66 vlineto
          -161 18 80 -101 116 hhcurveto
          74 49 36 58 41 hvcurveto
          endchar
        </CharString>
        <CharString name="F">
          3 21 -21 326 28 278 28 4 callgsubr
          326 270 28 -270 278 320 28 -352 hlineto
          endchar
        </CharString>
        <CharString name="F.sc">
          -50 21 -21 248 27 208 27 4 callgsubr
          248 225 27 -225 208 267 27 -299 hlineto
          endchar
        </CharString>
        <CharString name="F.sups">
          -156 479 25 173 25 75 callgsubr
          29 209 177 25 -177 173 209 25 -238 hlineto
          endchar
        </CharString>
        <CharString name="G">
          34 callsubr
          hstem
          56 34 404 32 vstem
          -97 callsubr
          endchar
        </CharString>
        <CharString name="G.sc">
          47 callsubr
          hstem
          56 34 332 32 vstem
          -95 callgsubr
          endchar
        </CharString>
        <CharString name="G.sups">
          -71 262 26 169 25 203 25 hstem
          34 31 258 27 vstem
          34 487 rmoveto
          -138 76 -87 112 57 45 20 28 26 vhcurveto
          172 -132 -25 105 -136 vlineto
          -20 -21 -38 -13 -40 hhcurveto
          -100 -59 78 122 119 62 78 101 48 31 -21 -24 22 hvcurveto
          17 19 rlineto
          24 -23 -37 27 -58 hhcurveto
          -116 -78 -87 -136 hvcurveto
          endchar
        </CharString>
        <CharString name="Gbreve">
          34 callsubr
          40 26 hstem
          56 34 141 26 237 32 vstem
          -97 callsubr
          287 380 rmoveto
          -80 callgsubr
        </CharString>
        <CharString name="Gbreve.sc">
          47 callsubr
          70 26 hstem
          56 34 97 26 209 32 vstem
          -95 callgsubr
          243 336 rmoveto
          -80 callgsubr
        </CharString>
        <CharString name="Gcaron">
          34 callsubr
          38 30 hstem
          56 34 404 32 vstem
          -97 callsubr
          367 482 -93 callgsubr
        </CharString>
        <CharString name="Gcaron.sc">
          47 callsubr
          68 30 hstem
          56 34 332 32 vstem
          -95 callgsubr
          323 438 -93 callgsubr
        </CharString>
        <CharString name="Gcircumflex">
          34 callsubr
          112 30 hstem
          56 34 404 32 vstem
          -97 callsubr
          207 378 -96 callgsubr
          endchar
        </CharString>
        <CharString name="Gcircumflex.sc">
          47 callsubr
          142 30 hstem
          56 34 332 32 vstem
          -95 callgsubr
          163 334 -96 callgsubr
          endchar
        </CharString>
        <CharString name="Gdotaccent">
          34 callsubr
          52 70 hstem
          56 34 219 68 117 32 vstem
          -97 callsubr
          287 392 -82 callsubr
        </CharString>
        <CharString name="Gdotaccent.sc">
          47 callsubr
          82 70 hstem
          56 34 175 68 89 32 vstem
          -95 callgsubr
          243 348 -82 callsubr
        </CharString>
        <CharString name="H">
          167 21 -21 338 28 294 -20 hstem
          100 32 370 -1 callgsubr
          endchar
        </CharString>
        <CharString name="H.sc">
          105 21 -21 258 28 224 -20 hstem
          100 32 308 -1 callsubr
          endchar
        </CharString>
        <CharString name="H.sups">
          -47 488 25 hstem
          63 29 236 29 98 callgsubr
          29 218 236 -218 29 432 -29 -189 -236 189 -29 hlineto
          endchar
        </CharString>
        <CharString name="Hbar">
          199 21 -21 338 28 130 28 -28 164 hstemhm
          120 32 370 32 hintmask 11101100
          522 366 rmoveto
          -370 130 370 hlineto
          106 28 rmoveto
          -74 hlineto
          159 callsubr
          -370 vlineto
          159 callsubr
          vlineto
          -82 -4 rlineto
          -24 82 -496 32 338 370 -338 32 496 74 vlineto
          endchar
        </CharString>
        <CharString name="Hbar.sc">
          139 21 -21 258 28 96 26 -26 128 hstemhm
          120 32 308 32 hintmask 11101100
          460 286 rmoveto
          -308 96 308 hlineto
          108 26 rmoveto
          -76 hlineto
          hintmask 11011100
          102 -32 vlineto
          hintmask 11101100
          -102 -308 vlineto
          hintmask 11011100
          102 -32 vlineto
          hintmask 11101100
          -102 vlineto
          -82 -4 rlineto
          -22 82 -382 32 258 308 -258 32 382 76 vlineto
          endchar
        </CharString>
        <CharString name="Hcircumflex">
          167 21 -21 338 28 294 -20 144 30 hstem
          100 32 370 -1 callgsubr
          137 50 -96 callgsubr
          endchar
        </CharString>
        <CharString name="Hcircumflex.sc">
          105 21 -21 258 28 224 -20 174 30 hstem
          100 32 308 -1 callsubr
          106 80 -96 callgsubr
          endchar
        </CharString>
        <CharString name="I">
          24 callsubr
          4 callgsubr
          660 -32 hlineto
          endchar
        </CharString>
        <CharString name="I.a">
          62 callgsubr
          hstem
          134 32 vstem
          -59 callgsubr
          endchar
        </CharString>
        <CharString name="I.sc">
          24 callgsubr
          hstem
          100 32 vstem
          96 callsubr
          endchar
        </CharString>
        <CharString name="I.sups">
          -312 133 callsubr
          432 -29 hlineto
          endchar
        </CharString>
        <CharString name="Iacute">
          24 callsubr
          4 callgsubr
          660 -32 hlineto
          122 154 -68 callsubr
          endchar
        </CharString>
        <CharString name="Iacute.a">
          62 callgsubr
          hstem
          134 32 vstem
          -59 callgsubr
          215 786 -68 callsubr
          endchar
        </CharString>
        <CharString name="Iacute.sc">
          24 callgsubr
          hstem
          100 32 vstem
          96 callsubr
          122 184 -68 callsubr
          endchar
        </CharString>
        <CharString name="Icircumflex">
          24 callsubr
          144 30 4 callgsubr
          660 -32 hlineto
          -64 50 -96 callgsubr
          endchar
        </CharString>
        <CharString name="Icircumflex.a">
          62 callgsubr
          124 30 hstem
          134 32 vstem
          -59 callgsubr
          29 682 -96 callgsubr
          endchar
        </CharString>
        <CharString name="Icircumflex.sc">
          24 callgsubr
          174 30 hstem
          100 32 vstem
          96 callsubr
          -64 80 -96 callgsubr
          endchar
        </CharString>
        <CharString name="Idieresis">
          24 callsubr
          88 64 hstemhm
          8 64 28 32 28 64 hintmask 11101000
          100 hmoveto
          32 660 -32 hlineto
          hintmask 11111100
          -60 68 rmoveto
          -103 callgsubr
          152 39 callsubr
        </CharString>
        <CharString name="Idieresis.a">
          62 callgsubr
          68 64 hstemhm
          43 64 27 32 29 64 hintmask 11001000
          -59 callgsubr
          hintmask 11111100
          33 700 rmoveto
          -103 callgsubr
          152 39 callsubr
        </CharString>
        <CharString name="Idieresis.sc">
          24 callgsubr
          118 64 hstemhm
          8 64 28 32 28 64 hintmask 11101000
          96 callsubr
          hintmask 11111100
          -60 98 rmoveto
          -103 callgsubr
          152 39 callsubr
        </CharString>
        <CharString name="Idotaccent">
          24 callsubr
          84 70 4 callgsubr
          660 -32 hlineto
          16 64 -82 callsubr
        </CharString>
        <CharString name="Idotaccent.a">
          62 callgsubr
          64 70 hstemhm
          117 68 -51 32 hintmask 11001000
          -59 callgsubr
          hintmask 11110000
          109 696 -82 callsubr
        </CharString>
        <CharString name="Idotaccent.sc">
          24 callgsubr
          114 70 hstemhm
          82 68 -50 32 hintmask 11101000
          96 callsubr
          hintmask 11110000
          16 94 -82 callsubr
        </CharString>
        <CharString name="Igrave">
          24 callsubr
          4 callgsubr
          660 -32 hlineto
          18 50 -25 callsubr
        </CharString>
        <CharString name="Igrave.a">
          62 callgsubr
          hstem
          134 32 vstem
          -59 callgsubr
          111 682 -25 callsubr
        </CharString>
        <CharString name="Igrave.sc">
          24 callgsubr
          hstem
          100 32 vstem
          96 callsubr
          18 80 -25 callsubr
        </CharString>
        <CharString name="Imacron">
          24 callsubr
          96 28 4 callgsubr
          660 -32 hlineto
          -94 76 -65 callgsubr
          endchar
        </CharString>
        <CharString name="Imacron.a">
          62 callgsubr
          76 28 hstem
          134 32 vstem
          -59 callgsubr
          -1 708 -65 callgsubr
          endchar
        </CharString>
        <CharString name="Imacron.sc">
          24 callgsubr
          126 28 hstem
          100 32 vstem
          96 callsubr
          -94 106 -65 callgsubr
          endchar
        </CharString>
        <CharString name="Iogonek">
          -235 149 callgsubr
          660 9 callgsubr
          660 -32 vlineto
          endchar
        </CharString>
        <CharString name="Iogonek.a">
          -165 -202 28 174 131 callsubr
          hstemhm
          76 30 28 32 vstemhm
          42 hmoveto
          99 hlineto
          -36 -30 -29 -44 -48 vvcurveto
          -54 36 -83 callsubr
          -26 18 36 43 26 44 44 33 hvcurveto
          hintmask 11101000
          82 28 -92 604 92 28 -216 -28 92 -604 hlineto
          hintmask 11111000
          -92 hlineto
          endchar
        </CharString>
        <CharString name="Iogonek.sc">
          -235 149 callgsubr
          510 9 callgsubr
          510 -32 vlineto
          endchar
        </CharString>
        <CharString name="Itilde">
          24 callsubr
          78 71 callsubr
          -8 153 callsubr
          100 hmoveto
          32 660 -32 hlineto
          hintmask 11111110
          74 58 -59 callsubr
          hintmask 11011110
          -87 callsubr
          hintmask 11111110
          38 callgsubr
        </CharString>
        <CharString name="Itilde.a">
          62 callgsubr
          58 71 callsubr
          27 22 85 32 87 22 hintmask 11011110
          -59 callgsubr
          hintmask 11111110
          167 690 rmoveto
          hintmask 11011110
          44 20 48 38 2 hvcurveto
          -22 hlineto
          hintmask 11111110
          -34 -4 -16 -24 -22 -42 -24 58 -52 hhcurveto
          -44 -20 -48 -38 -2 hvcurveto
          22 hlineto
          hintmask 11011110
          34 4 16 24 22 hhcurveto
          hintmask 11111110
          38 callgsubr
        </CharString>
        <CharString name="Itilde.sc">
          24 callgsubr
          108 71 callsubr
          -8 153 callsubr
          96 callsubr
          hintmask 11111110
          74 56 callsubr
          hintmask 11011110
          -87 callsubr
          hintmask 11111110
          38 callgsubr
        </CharString>
        <CharString name="J">
          -11 32 callgsubr
          36 callsubr
          endchar
        </CharString>
        <CharString name="J.sc">
          -55 31 callsubr
          42 callgsubr
          endchar
        </CharString>
        <CharString name="J.sups">
          -164 262 26 hstem
          212 29 vstem
          25 325 rmoveto
          -39 22 35 -24 49 hhcurveto
          79 31 55 70 hvcurveto
          315 -29 -312 vlineto
          -70 -27 -32 -54 -36 -26 15 36 -22 vhcurveto
          endchar
        </CharString>
        <CharString name="Jcircumflex">
          -11 32 callgsubr
          144 30 36 callsubr
          188 612 -96 callgsubr
          endchar
        </CharString>
        <CharString name="Jcircumflex.sc">
          -55 31 callsubr
          174 30 42 callgsubr
          144 510 -96 callgsubr
          endchar
        </CharString>
        <CharString name="K">
          83 49 callgsubr
          hstem
          100 32 -11 callgsubr
          endchar
        </CharString>
        <CharString name="K.sc">
          15 50 callgsubr
          hstem
          100 32 -11 callsubr
          endchar
        </CharString>
        <CharString name="K.sups">
          -102 133 callsubr
          150 hlineto
          90 101 146 -251 rlineto
          33 hlineto
          -159 273 140 159 rlineto
          -35 hlineto
          -213 -241 rlineto
          -2 241 -29 hlineto
          endchar
        </CharString>
        <CharString name="L">
          -7 0 75 callsubr
          -3 callgsubr
          endchar
        </CharString>
        <CharString name="L.sc">
          -58 0 76 callsubr
          -4 callsubr
          endchar
        </CharString>
        <CharString name="L.sups">
          -162 270 25 75 callgsubr
          231 25 -202 407 -29 hlineto
          endchar
        </CharString>
        <CharString name="Lacute">
          -7 0 75 callsubr
          -3 callgsubr
          124 154 -68 callsubr
          endchar
        </CharString>
        <CharString name="Lacute.sc">
          -58 0 76 callsubr
          -4 callsubr
          128 184 -68 callsubr
          endchar
        </CharString>
        <CharString name="Lcaron">
          -7 0 75 callsubr
          185 29 -3 callgsubr
          240 -142 -2 callsubr
        </CharString>
        <CharString name="Lcaron.sc">
          -58 0 76 callsubr
          161 29 -4 callsubr
          216 -112 -2 callsubr
        </CharString>
        <CharString name="Ldot">
          -7 0 28 256 78 298 -20 hstem
          100 32 182 72 -3 callgsubr
          214 -338 rmoveto
          -61 callgsubr
          endchar
        </CharString>
        <CharString name="Ldot.sc">
          -58 0 28 196 78 208 -20 hstem
          100 32 152 72 -4 callsubr
          184 -248 rmoveto
          -61 callgsubr
          endchar
        </CharString>
        <CharString name="Lslash">
          -7 0 28 632 -20 hstem
          104 32 vstem
          136 28 rmoveto
          250 vlineto
          196 102 rlineto
          30 vlineto
          -196 -102 rlineto
          352 -32 -366 vlineto
          -90 -48 rlineto
          -30 vlineto
          90 48 rlineto
          -264 342 28 vlineto
          endchar
        </CharString>
        <CharString name="Lslash.sc">
          -58 0 28 482 -20 hstem
          104 32 vstem
          136 28 rmoveto
          180 vlineto
          166 88 rlineto
          30 vlineto
          -166 -88 rlineto
          272 -32 -286 vlineto
          -90 -48 rlineto
          -30 vlineto
          90 48 rlineto
          -194 290 28 vlineto
          endchar
        </CharString>
        <CharString name="M">
          231 21 -21 74 36 522 28 hstem
          100 30 436 -7 callgsubr
          endchar
        </CharString>
        <CharString name="M.sc">
          149 21 -21 56 36 388 30 hstem
          100 30 356 -8 callsubr
          endchar
        </CharString>
        <CharString name="M.sups">
          -4 315 38 317 32 hstem
          63 27 283 28 98 callgsubr
          27 285 hlineto
          34 -2 45 -2 36 vhcurveto
          3 hlineto
          35 -94 95 -261 rlineto
          27 hlineto
          94 261 34 94 rlineto
          2 hlineto
          -1 -36 -2 -45 -34 vvcurveto
          -285 28 432 -42 vlineto
          -90 -253 -34 -96 rlineto
          -3 hlineto
          -35 96 -91 253 rlineto
          -43 hlineto
          endchar
        </CharString>
        <CharString name="N">
          156 callgsubr
          hstem
          100 30 372 30 vstem
          -85 callgsubr
          endchar
        </CharString>
        <CharString name="N.sc">
          101 0 169 callgsubr
          hstem
          100 30 308 30 vstem
          -84 callsubr
          endchar
        </CharString>
        <CharString name="N.sups">
          -49 270 40 352 40 hstem
          63 27 239 27 98 callgsubr
          27 271 hlineto
          41 -2 39 -1 41 vhcurveto
          2 hlineto
          51 -85 185 -307 rlineto
          31 432 -27 -267 hlineto
          -42 2 -42 2 -41 vhcurveto
          -3 hlineto
          -50 85 -185 307 rlineto
          -32 hlineto
          endchar
        </CharString>
        <CharString name="Nacute">
          156 callgsubr
          hstem
          100 30 372 30 vstem
          -85 callgsubr
          327 154 -68 callsubr
          endchar
        </CharString>
        <CharString name="Nacute.sc">
          101 0 169 callgsubr
          hstem
          100 30 308 30 vstem
          -84 callsubr
          298 184 -68 callsubr
          endchar
        </CharString>
        <CharString name="Ncaron">
          156 callgsubr
          50 30 hstem
          100 30 372 30 vstem
          -85 callgsubr
          301 154 -93 callgsubr
        </CharString>
        <CharString name="Ncaron.sc">
          101 0 169 callgsubr
          80 30 hstem
          100 30 308 30 vstem
          -84 callsubr
          272 184 -93 callgsubr
        </CharString>
        <CharString name="Ntilde">
          156 callgsubr
          58 71 callsubr
          100 30 67 100 callgsubr
          57 30 hintmask 11011111
          -85 callgsubr
          hintmask 11111111
          279 58 -59 callsubr
          hintmask 11011111
          -87 callsubr
          hintmask 11111111
          38 callgsubr
        </CharString>
        <CharString name="Ntilde.sc">
          101 0 169 callgsubr
          88 71 callsubr
          100 30 38 100 callgsubr
          22 30 hintmask 11011101
          -84 callsubr
          hintmask 11111111
          250 56 callsubr
          hintmask 11011101
          -87 callsubr
          hintmask 11111111
          38 callgsubr
        </CharString>
        <CharString name="O">
          -24 callgsubr
          hstem
          56 34 468 34 vstem
          -107 callsubr
          endchar
        </CharString>
        <CharString name="O.sc">
          7 callgsubr
          hstem
          56 34 388 34 vstem
          -105 callgsubr
          endchar
        </CharString>
        <CharString name="O.sups">
          -39 262 26 397 25 hstem
          34 31 299 31 vstem
          214 262 rmoveto
          106 75 88 138 136 -75 86 -106 -104 -76 -85 -137 -138 76 -88 104 hvcurveto
          26 vmoveto
          -89 -60 79 121 120 60 77 89 91 59 -77 -120 -121 -59 -79 -91 hvcurveto
          endchar
        </CharString>
        <CharString name="OE">
          361 -35 callgsubr
          hstem
          56 34 348 32 vstem
          56 332 rmoveto
          -196 100 -136 210 vhcurveto
          416 28 -312 143 callsubr
          -406 hlineto
          -210 -100 -132 -196 hvcurveto
          34 hmoveto
          174 86 126 194 vhcurveto
          68 -604 -68 hlineto
          -194 -86 130 174 hvcurveto
          endchar
        </CharString>
        <CharString name="OE.sc">
          243 -28 callsubr
          hstem
          56 34 284 32 vstem
          56 254 rmoveto
          -153 83 -101 179 vhcurveto
          346 28 -258 141 callsubr
          -336 hlineto
          -179 -83 -103 -153 hvcurveto
          318 230 rmoveto
          -457 -52 vlineto
          -163 -69 94 133 143 69 87 163 hvcurveto
          endchar
        </CharString>
        <CharString name="Oacute">
          -24 callgsubr
          hstem
          56 34 468 34 vstem
          -107 callsubr
          106 796 -68 callsubr
          endchar
        </CharString>
        <CharString name="Oacute.sc">
          7 callgsubr
          hstem
          56 34 388 34 vstem
          -105 callgsubr
          106 676 -68 callsubr
          endchar
        </CharString>
        <CharString name="Ocircumflex">
          -24 callgsubr
          112 30 hstem
          56 34 468 34 vstem
          -107 callsubr
          -80 692 -96 callgsubr
          endchar
        </CharString>
        <CharString name="Ocircumflex.sc">
          7 callgsubr
          142 30 hstem
          56 34 388 34 vstem
          -105 callgsubr
          -80 572 -96 callgsubr
          endchar
        </CharString>
        <CharString name="Odieresis">
          -24 callgsubr
          56 64 hstem
          56 34 126 64 88 64 126 34 vstem
          -107 callsubr
          -76 710 rmoveto
          -103 callgsubr
          152 39 callsubr
        </CharString>
        <CharString name="Odieresis.sc">
          7 callgsubr
          86 64 hstem
          56 34 86 64 88 64 86 34 vstem
          -105 callgsubr
          -76 590 rmoveto
          -103 callgsubr
          152 39 callsubr
        </CharString>
        <CharString name="Ograve">
          -24 callgsubr
          hstem
          56 34 468 34 vstem
          -107 callsubr
          2 692 -25 callsubr
        </CharString>
        <CharString name="Ograve.sc">
          7 callgsubr
          hstem
          56 34 388 34 vstem
          -105 callgsubr
          2 572 -25 callsubr
        </CharString>
        <CharString name="Ohorn">
          -24 callgsubr
          hstemhm
          60 34 456 30 -18 34 hintmask 11101000
          328 18 -62 callsubr
          hintmask 11110000
          -67 callsubr
          hintmask 11101000
          0 callsubr
          hintmask 11110000
          60 14 37 29 51 -71 callsubr
        </CharString>
        <CharString name="Ohorn.sc">
          7 callgsubr
          hstemhm
          56 34 388 34 -14 30 hintmask 11110000
          284 18 rmoveto
          -117 -77 114 callsubr
          77 90 117 116 78 -90 -146 -146 -78 -92 -116 hvcurveto
          hintmask 11101000
          -63 callsubr
          hintmask 11110000
          16 callsubr
          hintmask 11101000
          54 14 36 27 51 -71 callsubr
        </CharString>
        <CharString name="Ohungarumlaut">
          -24 callgsubr
          38 104 hstem
          56 34 468 34 vstem
          -107 callsubr
          -58 692 -9 callsubr
        </CharString>
        <CharString name="Ohungarumlaut.sc">
          7 callgsubr
          68 104 hstem
          56 34 388 34 vstem
          -105 callgsubr
          -58 572 -9 callsubr
        </CharString>
        <CharString name="Omacron">
          -24 callgsubr
          64 28 hstem
          56 34 468 34 vstem
          -107 callsubr
          -110 718 -65 callgsubr
          endchar
        </CharString>
        <CharString name="Omacron.sc">
          7 callgsubr
          94 28 hstem
          56 34 388 34 vstem
          -105 callgsubr
          -110 598 -65 callgsubr
          endchar
        </CharString>
        <CharString name="Oslash">
          181 -12 30 -1 -21 646 30 -8 -20 hstemhm
          60 34 468 34 hintmask 10101100
          503 551 rmoveto
          37 -53 22 -75 -91 vvcurveto
          -190 -94 -124 -140 -66 -56 28 49 -41 vhcurveto
          -17 23 rmoveto
          -34 54 -20 73 87 vvcurveto
          190 94 120 140 63 54 -24 -45 40 vhcurveto
          hintmask 10011100
          101 91 rmoveto
          hintmask 01101100
          -22 16 -60 -81 rlineto
          47 -46 -61 26 -69 hhcurveto
          -58 callgsubr
          -99 25 -82 43 -60 hvcurveto
          -70 -95 rlineto
          hintmask 10011100
          22 -16 66 89 rlineto
          -52 47 63 -29 72 hhcurveto
          156 112 136 208 103 -27 84 -47 59 hvcurveto
          endchar
        </CharString>
        <CharString name="Oslash.sc">
          101 -12 30 -1 -21 496 30 -8 -20 hstemhm
          56 34 388 34 hintmask 10101100
          436 413 rmoveto
          27 -40 15 -53 -64 vvcurveto
          -146 -78 -92 -116 -55 -46 20 37 -33 vhcurveto
          -18 22 rmoveto
          -27 41 -15 54 64 vvcurveto
          146 77 90 117 55 46 -20 -36 33 vhcurveto
          hintmask 10011100
          104 78 rmoveto
          hintmask 01101100
          -22 18 -61 -72 rlineto
          40 -40 -54 22 -61 hhcurveto
          -133 -95 -103 -163 -75 20 -63 35 -46 hvcurveto
          -65 -76 rlineto
          hintmask 10011100
          22 -18 62 73 rlineto
          -41 39 54 -22 61 hhcurveto
          132 96 105 163 75 -20 62 -34 45 hvcurveto
          endchar
        </CharString>
        <CharString name="Otilde">
          -24 callgsubr
          46 147 callsubr
          110 100 callgsubr
          110 34 hintmask 11011111
          -107 callsubr
          hintmask 11111111
          58 700 -59 callsubr
          hintmask 11011111
          -87 callsubr
          hintmask 11111111
          38 callgsubr
        </CharString>
        <CharString name="Otilde.sc">
          86 callgsubr
          hintmask 11011111
          -105 callgsubr
          hintmask 11111111
          58 580 -59 callsubr
          hintmask 11011111
          -87 callsubr
          hintmask 11111111
          38 callgsubr
        </CharString>
        <CharString name="P">
          85 21 -21 292 28 312 28 hstem
          100 32 338 34 vstem
          100 hmoveto
          32 292 119 callgsubr
          -172 hlineto
          32 -340 rmoveto
          88 callsubr
        </CharString>
        <CharString name="P.sc">
          25 21 -21 220 27 236 27 hstem
          100 32 278 34 vstem
          100 hmoveto
          32 220 115 hlineto
          125 72 49 99 104 -72 38 -125 hvcurveto
          -147 hlineto
          32 -263 rmoveto
          236 105 vlineto
          118 55 -28 -87 -86 -51 -35 -118 hvcurveto
          endchar
        </CharString>
        <CharString name="P.sups">
          -101 456 25 196 25 hstem
          63 29 216 30 98 callgsubr
          29 186 90 hlineto
          97 59 41 85 88 -58 32 -98 hvcurveto
          -119 hlineto
          29 -221 rmoveto
          196 83 vlineto
          89 44 -22 -73 -72 -44 -29 -89 hvcurveto
          endchar
        </CharString>
        <CharString name="Q">
          181 -152 32 109 27 626 30 hstem
          56 34 468 34 vstem
          90 332 rmoveto
          190 94 120 140 140 94 -120 -190 -190 -94 -126 -140 -140 -94 126 190 vhcurveto
          492 -444 rmoveto
          -4 -16 -20 -4 -30 hhcurveto
          -85 -61 40 69 -29 hvcurveto
          147 9 104 133 201 110 callgsubr
          -199 102 -133 146 -11 vhcurveto
          -81 31 72 -60 107 hhcurveto
          30 30 6 4 16 hvcurveto
          endchar
        </CharString>
        <CharString name="Q.sc">
          101 -138 30 96 28 476 30 hstem
          56 34 388 34 vstem
          90 256 rmoveto
          146 77 90 117 116 78 -90 -146 -146 -78 -94 -116 -117 -77 94 146 vhcurveto
          412 -356 rmoveto
          -4 -14 -17 -4 -25 hhcurveto
          -71 -52 32 64 -25 hvcurveto
          125 8 89 103 157 vvcurveto
          143 callgsubr
          -155 85 -102 123 -10 vhcurveto
          -73 26 64 -54 90 hhcurveto
          26 26 4 6 14 hvcurveto
          endchar
        </CharString>
        <CharString name="Q.sups">
          -39 169 27 67 25 397 25 hstem
          34 31 298 31 vstem
          65 489 rmoveto
          119 60 77 89 90 59 -77 -119 -121 -59 -80 -90 -89 -60 80 121 vhcurveto
          323 -288 rmoveto
          -2 -11 -13 -3 -20 hhcurveto
          -55 -39 23 44 -20 hvcurveto
          97 9 67 86 131 vvcurveto
          135 -75 86 -105 -104 -76 -85 -136 -131 68 -86 96 -9 vhcurveto
          -55 21 49 -39 73 hhcurveto
          22 21 4 3 11 hvcurveto
          endchar
        </CharString>
        <CharString name="R">
          124 callgsubr
          hstem
          100 32 328 34 vstem
          132 340 -29 callsubr
          234 -340 rmoveto
          -188 314 rlineto
          -61 callsubr
          endchar
        </CharString>
        <CharString name="R.sc">
          124 callsubr
          hstem
          100 32 271 32 vstem
          132 262 -17 callsubr
          199 -262 rmoveto
          -154 237 rlineto
          -56 callgsubr
          endchar
        </CharString>
        <CharString name="R.sups">
          -100 469 25 183 25 hstem
          63 29 209 30 vstem
          92 494 rmoveto
          183 87 vlineto
          79 43 -23 -65 -65 -43 -30 -79 hvcurveto
          160 -224 rmoveto
          -121 201 rlineto
          69 9 44 40 69 vvcurveto
          81 -57 32 -87 vhcurveto
          -124 -432 29 199 94 hlineto
          119 -199 rlineto
          endchar
        </CharString>
        <CharString name="Racute">
          124 callgsubr
          50 104 hstem
          100 32 328 34 vstem
          387 68 callsubr
          -147 -370 -29 callsubr
          234 -340 rmoveto
          -188 314 rlineto
          -61 callsubr
          endchar
        </CharString>
        <CharString name="Racute.sc">
          124 callsubr
          80 104 hstem
          100 32 271 32 vstem
          374 694 -68 callsubr
          -134 -328 -17 callsubr
          199 -262 rmoveto
          -154 237 rlineto
          -56 callgsubr
          endchar
        </CharString>
        <CharString name="Rcaron">
          124 callgsubr
          50 30 hstem
          100 32 328 34 vstem
          295 710 12 callsubr
          -135 -370 -29 callsubr
          234 -340 rmoveto
          -188 314 rlineto
          -61 callsubr
          endchar
        </CharString>
        <CharString name="Rcaron.sc">
          124 callsubr
          80 30 hstem
          100 32 271 32 vstem
          282 590 12 callsubr
          -122 -328 -17 callsubr
          199 -262 rmoveto
          -154 237 rlineto
          -56 callgsubr
          endchar
        </CharString>
        <CharString name="S">
          49 44 callgsubr
          hstem
          84 32 326 -96 callsubr
          endchar
        </CharString>
        <CharString name="S.sc">
          -17 115 callsubr
          hstem
          78 32 266 32 vstem
          48 64 -100 callgsubr
          endchar
        </CharString>
        <CharString name="S.sups">
          -126 262 26 397 25 hstem
          52 30 205 29 vstem
          29 327 rmoveto
          -38 35 49 -27 64 hhcurveto
          84 55 50 69 63 -42 26 -50 22 hvcurveto
          -68 30 rlineto
          -31 13 -43 21 50 vvcurveto
          48 39 31 58 45 34 -18 -27 26 vhcurveto
          17 19 rlineto
          28 -27 -42 23 -53 hhcurveto
          -72 -55 -43 -62 -64 51 -27 38 -17 hvcurveto
          68 -30 rlineto
          43 -19 35 -17 -55 vvcurveto
          -53 -43 -35 -67 -51 -46 21 38 -32 vhcurveto
          endchar
        </CharString>
        <CharString name="Sacute">
          49 44 callgsubr
          hstem
          84 32 326 -96 callsubr
          305 704 -68 callsubr
          endchar
        </CharString>
        <CharString name="Sacute.sc">
          -17 115 callsubr
          hstem
          78 32 266 32 vstem
          48 64 -100 callgsubr
          276 606 -68 callsubr
          endchar
        </CharString>
        <CharString name="Scaron">
          49 44 callgsubr
          38 30 hstem
          84 32 326 -96 callsubr
          279 704 -93 callgsubr
        </CharString>
        <CharString name="Scaron.sc">
          -17 115 callsubr
          68 30 hstem
          78 32 266 32 vstem
          48 64 -100 callgsubr
          250 606 -93 callgsubr
        </CharString>
        <CharString name="Scircumflex">
          49 44 callgsubr
          112 30 hstem
          84 32 326 -96 callsubr
          119 600 -96 callgsubr
          endchar
        </CharString>
        <CharString name="Scircumflex.sc">
          -17 115 callsubr
          142 30 hstem
          78 32 266 32 vstem
          48 64 -100 callgsubr
          90 502 -96 callgsubr
          endchar
        </CharString>
        <CharString name="T">
          53 21 -21 632 28 hstem
          244 32 vstem
          14 callgsubr
          endchar
        </CharString>
        <CharString name="T.sc">
          -19 21 -21 483 27 hstem
          208 32 vstem
          13 callsubr
          endchar
        </CharString>
        <CharString name="T.sups">
          -126 677 25 hstem
          156 29 vstem
          156 270 rmoveto
          29 407 139 25 -307 -25 139 hlineto
          endchar
        </CharString>
        <CharString name="Tcaron">
          53 21 -21 632 28 -28 182 -104 30 hstemhm
          244 32 hintmask 11011000
          14 callgsubr
          hintmask 10101000
          95 182 55 callsubr
        </CharString>
        <CharString name="Tcaron.sc">
          -19 21 -21 483 27 80 30 hstem
          208 32 vstem
          13 callsubr
          96 211 -93 callgsubr
        </CharString>
        <CharString name="Thorn">
          89 21 -21 172 28 312 28 -28 148 hstemhm
          100 32 338 34 hintmask 11101100
          100 hmoveto
          32 172 119 callgsubr
          -140 hlineto
          hintmask 11011100
          120 -32 vlineto
          32 -460 rmoveto
          hintmask 11101100
          88 callsubr
        </CharString>
        <CharString name="Thorn.sc">
          29 21 -21 128 28 234 28 -28 120 hstemhm
          100 32 278 34 hintmask 11101100
          100 hmoveto
          32 128 115 hlineto
          124 73 50 98 103 -73 39 -124 hvcurveto
          -115 hlineto
          hintmask 11011100
          92 -32 vlineto
          32 -354 rmoveto
          hintmask 11101100
          234 105 vlineto
          117 56 -27 -87 -85 -56 -35 -117 hvcurveto
          endchar
        </CharString>
        <CharString name="U">
          4 callsubr
          hstem
          98 32 372 30 vstem
          -100 callsubr
          endchar
        </CharString>
        <CharString name="U.sc">
          18 callsubr
          hstem
          98 32 306 30 vstem
          -98 callgsubr
          endchar
        </CharString>
        <CharString name="U.sups">
          -49 262 26 hstem
          62 29 238 27 vstem
          62 435 rmoveto
          -134 73 -39 74 74 73 39 134 vhcurveto
          267 -27 -263 vlineto
          -116 -57 -35 -63 -62 -56 35 116 vhcurveto
          263 -29 vlineto
          endchar
        </CharString>
        <CharString name="Uacute">
          4 callsubr
          hstem
          98 32 372 30 vstem
          -100 callsubr
          323 154 -68 callsubr
          endchar
        </CharString>
        <CharString name="Uacute.sc">
          18 callsubr
          hstem
          98 32 306 30 vstem
          -98 callgsubr
          290 184 -68 callsubr
          endchar
        </CharString>
        <CharString name="Ubreve">
          4 callsubr
          72 26 hstem
          98 32 73 26 273 30 vstem
          -100 callsubr
          217 52 rmoveto
          -80 callgsubr
        </CharString>
        <CharString name="Ubreve.sc">
          18 callsubr
          102 26 hstem
          98 32 40 26 240 30 vstem
          -98 callgsubr
          184 82 rmoveto
          -80 callgsubr
        </CharString>
        <CharString name="Ucircumflex">
          4 callsubr
          144 30 hstem
          98 32 372 30 vstem
          -100 callsubr
          137 50 -96 callgsubr
          endchar
        </CharString>
        <CharString name="Ucircumflex.sc">
          18 callsubr
          174 30 hstem
          98 32 306 30 vstem
          -98 callgsubr
          104 80 -96 callgsubr
          endchar
        </CharString>
        <CharString name="Udieresis">
          4 callsubr
          88 64 -53 callgsubr
          141 68 rmoveto
          -103 callgsubr
          152 39 callsubr
        </CharString>
        <CharString name="Udieresis.sc">
          18 callsubr
          118 64 -50 callsubr
          108 98 rmoveto
          -103 callgsubr
          152 39 callsubr
        </CharString>
        <CharString name="Ugrave">
          4 callsubr
          hstem
          98 32 372 30 vstem
          -100 callsubr
          219 50 -25 callsubr
        </CharString>
        <CharString name="Ugrave.sc">
          18 callsubr
          hstem
          98 32 306 30 vstem
          -98 callgsubr
          186 80 -25 callsubr
        </CharString>
        <CharString name="Uhorn">
          155 callsubr
          hstem
          98 32 372 30 68 30 vstem
          586 768 -84 callgsubr
        </CharString>
        <CharString name="Uhorn.sc">
          107 31 callsubr
          hstem
          98 32 306 30 68 30 vstem
          520 618 -76 callsubr
        </CharString>
        <CharString name="Uhungarumlaut">
          163 133 callgsubr
          vstem
          -100 callsubr
          159 50 -9 callsubr
        </CharString>
        <CharString name="Uhungarumlaut.sc">
          97 135 callgsubr
          vstem
          -98 callgsubr
          126 80 -9 callsubr
        </CharString>
        <CharString name="Umacron">
          4 callsubr
          96 28 hstem
          98 32 372 30 vstem
          -100 callsubr
          107 76 -65 callgsubr
          endchar
        </CharString>
        <CharString name="Umacron.sc">
          18 callsubr
          126 28 hstem
          98 32 306 30 vstem
          -98 callgsubr
          74 106 -65 callgsubr
          endchar
        </CharString>
        <CharString name="Uogonek">
          163 98 callsubr
          100 callsubr
          hstem
          98 32 134 30 208 30 vstem
          98 246 rmoveto
          -200 104 -60 126 2 vhcurveto
          -32 -32 -32 -28 -50 vvcurveto
          -54 36 -83 callsubr
          -26 18 36 36 32 48 54 28 hvcurveto
          76 38 76 46 170 vvcurveto
          414 -30 -406 vlineto
          -182 -90 -54 -98 -96 -88 54 182 vhcurveto
          406 -32 vlineto
          endchar
        </CharString>
        <CharString name="Uogonek.sc">
          97 98 callsubr
          101 callgsubr
          hstem
          98 32 104 30 172 30 vstem
          466 510 rmoveto
          -30 -312 hlineto
          -80 callsubr
          -318 vlineto
          -160 90 -46 110 2 vhcurveto
          -32 -32 -32 -28 -50 vvcurveto
          -54 36 -83 callsubr
          -26 18 36 36 32 48 54 28 hvcurveto
          56 30 60 36 134 vvcurveto
          endchar
        </CharString>
        <CharString name="Uring">
          4 callsubr
          60 22 116 22 hstem
          98 32 107 24 106 26 109 30 vstem
          -100 callsubr
          217 40 rmoveto
          -9 callgsubr
        </CharString>
        <CharString name="Uring.sc">
          18 callsubr
          90 22 116 22 hstem
          98 32 74 24 106 26 76 30 vstem
          -98 callgsubr
          184 70 rmoveto
          -9 callgsubr
        </CharString>
        <CharString name="Utilde">
          4 callsubr
          78 71 callsubr
          98 32 61 100 callgsubr
          63 30 hintmask 11011111
          -100 callsubr
          hintmask 11111111
          275 58 -59 callsubr
          hintmask 11011111
          -87 callsubr
          hintmask 11111111
          38 callgsubr
        </CharString>
        <CharString name="Utilde.sc">
          18 callsubr
          108 71 callsubr
          98 32 28 100 callgsubr
          30 30 hintmask 11011001
          -98 callgsubr
          hintmask 11111011
          242 56 callsubr
          hintmask 11011101
          -87 callsubr
          hintmask 11111011
          38 callgsubr
        </CharString>
        <CharString name="V">
          15 0 41 619 -20 hstem
          6 470 vstem
          226 hmoveto
          32 hlineto
          218 660 rlineto
          -32 hlineto
          -128 -396 -26 -82 -18 -60 -28 -81 rlinecurve
          -4 hlineto
          -28 81 -18 60 -26 82 -128 396 rcurveline
          -34 hlineto
          endchar
        </CharString>
        <CharString name="V.sc">
          -56 0 39 471 -20 hstem
          6 399 vstem
          191 hmoveto
          32 hlineto
          182 510 rlineto
          -32 hlineto
          -104 -299 -22 -63 -15 -47 -22 -62 rlinecurve
          -4 hlineto
          -22 62 -17 47 -22 63 -105 299 rcurveline
          -34 hlineto
          endchar
        </CharString>
        <CharString name="V.sups">
          -147 270 35 hstem
          1 319 vstem
          146 270 rmoveto
          31 hlineto
          143 432 rlineto
          -30 hlineto
          -81 -252 -17 -53 -10 -40 -18 -52 rlinecurve
          -3 hlineto
          -18 52 -12 40 -17 53 -82 252 rcurveline
          -31 hlineto
          endchar
        </CharString>
        <CharString name="W">
          95 callsubr
          hstem
          30 702 -92 callsubr
          endchar
        </CharString>
        <CharString name="W.sc">
          97 callsubr
          hstem
          30 595 -89 callsubr
          endchar
        </CharString>
        <CharString name="W.sups">
          40 270 37 358 37 hstem
          17 473 vstem
          117 270 rmoveto
          32 hlineto
          79 298 9 33 7 30 8 34 rlinecurve
          3 hlineto
          8 -34 6 -30 9 -33 81 -298 rcurveline
          31 hlineto
          100 432 rlineto
          -29 hlineto
          -56 -254 -11 -48 -8 -47 -10 -46 rlinecurve
          -3 hlineto
          -12 46 -10 47 -13 48 -69 254 rcurveline
          -30 hlineto
          -69 -254 -13 -48 -10 -47 -11 -46 rlinecurve
          -3 hlineto
          -9 46 -9 47 -11 48 -56 254 rcurveline
          -31 hlineto
          endchar
        </CharString>
        <CharString name="Wacute">
          95 callsubr
          hstem
          30 702 -92 callsubr
          458 154 -68 callsubr
          endchar
        </CharString>
        <CharString name="Wacute.sc">
          97 callsubr
          hstem
          30 595 -89 callsubr
          404 184 -68 callsubr
          endchar
        </CharString>
        <CharString name="Wcircumflex">
          95 callsubr
          124 30 hstem
          30 702 -92 callsubr
          272 50 -96 callgsubr
          endchar
        </CharString>
        <CharString name="Wcircumflex.sc">
          97 callsubr
          154 30 hstem
          30 595 -89 callsubr
          218 80 -96 callgsubr
          endchar
        </CharString>
        <CharString name="Wdieresis">
          95 callsubr
          68 64 hstem
          274 64 88 64 -92 callsubr
          276 68 rmoveto
          -103 callgsubr
          152 39 callsubr
        </CharString>
        <CharString name="Wdieresis.sc">
          97 callsubr
          98 64 hstem
          220 64 88 64 -89 callsubr
          222 98 rmoveto
          -103 callgsubr
          152 39 callsubr
        </CharString>
        <CharString name="Wgrave">
          95 callsubr
          hstem
          30 702 -92 callsubr
          354 50 -25 callsubr
        </CharString>
        <CharString name="Wgrave.sc">
          97 callsubr
          hstem
          30 595 -89 callsubr
          300 80 -25 callsubr
        </CharString>
        <CharString name="X">
          3 49 callgsubr
          hstem
          18 434 vstem
          18 hmoveto
          32 hlineto
          122 212 18 32 18 32 22 40 rlinecurve
          4 hlineto
          24 -40 20 -32 18 -32 122 -212 rcurveline
          34 hlineto
          -200 340 186 320 rlineto
          -32 hlineto
          -116 -204 -18 -30 -12 -22 -20 -36 rlinecurve
          -4 hlineto
          -22 36 -14 22 -18 30 -116 204 rcurveline
          -34 hlineto
          186 -318 rlineto
          endchar
        </CharString>
        <CharString name="X.sc">
          -59 50 callgsubr
          hstem
          18 372 vstem
          18 hmoveto
          33 hlineto
          100 159 15 25 16 25 18 30 rlinecurve
          4 hlineto
          20 -30 15 -25 16 -25 100 -159 rcurveline
          35 hlineto
          -168 262 156 248 rlineto
          -34 hlineto
          -94 -153 -14 -23 -12 -18 -16 -28 rlinecurve
          -4 hlineto
          -18 28 -11 18 -15 23 -96 153 rcurveline
          -34 hlineto
          156 -246 rlineto
          endchar
        </CharString>
        <CharString name="X.sups">
          -153 270 432 hstem
          9 296 vstem
          9 270 rmoveto
          30 hlineto
          77 134 12 21 12 21 14 26 rlinecurve
          3 hlineto
          16 -26 13 -21 12 -21 76 -134 rcurveline
          31 hlineto
          -132 223 123 209 rlineto
          -30 hlineto
          -73 -128 -11 -20 -9 -15 -13 -23 rlinecurve
          -3 hlineto
          -14 23 -9 15 -12 20 -72 128 rcurveline
          -32 hlineto
          123 -208 rlineto
          endchar
        </CharString>
        <CharString name="Y">
          -31 49 callgsubr
          hstem
          202 32 vstem
          -88 callsubr
          endchar
        </CharString>
        <CharString name="Y.sc">
          -94 50 callgsubr
          hstem
          170 32 vstem
          -88 callgsubr
          endchar
        </CharString>
        <CharString name="Y.sups">
          -176 270 432 hstem
          131 29 vstem
          131 270 rmoveto
          29 176 hlineto
          132 256 rlineto
          -30 hlineto
          -67 -136 -14 -32 -16 -29 -17 -32 rlinecurve
          -3 hlineto
          -17 32 -15 29 -15 32 -68 136 rcurveline
          -31 hlineto
          132 -256 rlineto
          endchar
        </CharString>
        <CharString name="Yacute">
          -31 49 callgsubr
          hstem
          202 32 vstem
          -88 callsubr
          122 542 -68 callsubr
          endchar
        </CharString>
        <CharString name="Yacute.sc">
          -94 50 callgsubr
          hstem
          170 32 vstem
          -88 callgsubr
          125 486 -68 callsubr
          endchar
        </CharString>
        <CharString name="Ycircumflex">
          -31 49 callgsubr
          144 30 hstem
          202 32 vstem
          -88 callsubr
          -64 438 -96 callgsubr
          endchar
        </CharString>
        <CharString name="Ycircumflex.sc">
          -94 50 callgsubr
          174 30 hstem
          170 32 vstem
          -88 callgsubr
          -61 382 -96 callgsubr
          endchar
        </CharString>
        <CharString name="Ydieresis">
          -31 49 callgsubr
          88 64 hstemhm
          110 64 28 32 28 64 hintmask 11101000
          -88 callsubr
          hintmask 11111100
          -60 456 rmoveto
          -103 callgsubr
          152 39 callsubr
        </CharString>
        <CharString name="Ydieresis.sc">
          -94 50 callgsubr
          118 64 hstemhm
          81 64 25 32 31 64 hintmask 11101000
          -88 callgsubr
          hintmask 11111100
          -57 400 rmoveto
          -103 callgsubr
          152 39 callsubr
        </CharString>
        <CharString name="Ygrave">
          -31 49 callgsubr
          hstem
          202 32 vstem
          -88 callsubr
          18 438 -25 callsubr
        </CharString>
        <CharString name="Ygrave.sc">
          -94 50 callgsubr
          hstem
          170 32 vstem
          -88 callgsubr
          21 382 -25 callsubr
        </CharString>
        <CharString name="Z">
          71 66 callgsubr
          hstem
          52 436 vstem
          -32 callsubr
          endchar
        </CharString>
        <CharString name="Z.sc">
          4 0 27 456 27 hstem
          52 369 -37 callsubr
          endchar
        </CharString>
        <CharString name="Z.sups">
          -114 270 25 382 25 hstem
          31 293 vstem
          31 270 rmoveto
          293 25 -257 hlineto
          254 390 rlineto
          17 -268 -25 232 vlineto
          -254 -390 rlineto
          endchar
        </CharString>
        <CharString name="Zacute">
          71 66 callgsubr
          -28 182 hstemhm
          52 436 hintmask 11010000
          -32 callsubr
          hintmask 10110000
          333 796 -68 callsubr
          endchar
        </CharString>
        <CharString name="Zacute.sc">
          4 0 27 456 27 hstem
          52 369 -37 callsubr
          300 676 -68 callsubr
          endchar
        </CharString>
        <CharString name="Zcaron">
          71 66 callgsubr
          -28 182 -104 30 hstemhm
          52 436 hintmask 11001000
          -32 callsubr
          hintmask 10101000
          307 796 55 callsubr
        </CharString>
        <CharString name="Zcaron.sc">
          4 0 27 456 27 80 30 hstem
          52 369 -37 callsubr
          274 676 -93 callgsubr
        </CharString>
        <CharString name="Zdotaccent">
          71 66 callgsubr
          64 70 hstem
          245 68 vstem
          -32 callsubr
          227 706 -82 callsubr
        </CharString>
        <CharString name="Zdotaccent.sc">
          4 0 27 456 27 94 70 hstem
          212 68 -37 callsubr
          194 586 -82 callsubr
        </CharString>
        <CharString name="a">
          -16 callgsubr
          71 callgsubr
          hintmask 10111000
          -83 callgsubr
          hintmask 01111000
          -102 callgsubr
          hintmask 10111000
          -101 callgsubr
          endchar
        </CharString>
        <CharString name="a.a">
          -57 callsubr
          hstemhm
          54 32 328 30 hintmask 10101100
          -106 callsubr
          hintmask 01011100
          -49 callsubr
          hintmask 10101100
          -92 callgsubr
          endchar
        </CharString>
        <CharString name="a.supa">
          -22 callsubr
        </CharString>
        <CharString name="a.sups">
          -34 callgsubr
        </CharString>
        <CharString name="aacute">
          -16 callgsubr
          71 callgsubr
          hintmask 10111000
          -83 callgsubr
          hintmask 01111000
          -102 callgsubr
          hintmask 10111000
          -101 callgsubr
          240 588 -45 callgsubr
        </CharString>
        <CharString name="aacute.a">
          -57 callsubr
          hstemhm
          54 32 328 30 hintmask 10101100
          -106 callsubr
          hintmask 01011100
          -49 callsubr
          hintmask 10101100
          -92 callgsubr
          295 468 -45 callgsubr
        </CharString>
        <CharString name="abreve">
          163 callgsubr
          hstemhm
          68 32 44 90 callsubr
          6 30 hintmask 10111001
          -83 callgsubr
          hintmask 01111001
          -102 callgsubr
          hintmask 10111001
          -101 callgsubr
          hintmask 10111110
          160 458 -94 callgsubr
        </CharString>
        <CharString name="abreve.a">
          -57 callsubr
          118 26 hstemhm
          54 32 67 90 callsubr
          29 30 hintmask 1010110010000000
          -106 callsubr
          hintmask 0101110010000000
          -49 callsubr
          hintmask 1010110010000000
          -92 callgsubr
          hintmask 1010111110000000
          45 callgsubr
          endchar
        </CharString>
        <CharString name="acircumflex">
          -16 callgsubr
          184 32 71 callgsubr
          hintmask 10101100
          -83 callgsubr
          hintmask 01101100
          -102 callgsubr
          hintmask 10101100
          -101 callgsubr
          52 454 -26 callsubr
          hintmask 10111100
          51 callgsubr
        </CharString>
        <CharString name="acircumflex.a">
          -57 callsubr
          216 32 7 callsubr
          hintmask 10100110
          -106 callsubr
          hintmask 01010110
          -49 callsubr
          hintmask 10100110
          -92 callgsubr
          107 334 -26 callsubr
          hintmask 10101110
          51 callgsubr
        </CharString>
        <CharString name="acute">
          65 139 callgsubr
          214 132 vstem
          346 153 callgsubr
          endchar
        </CharString>
        <CharString name="adieresis">
          -16 callgsubr
          112 64 hstemhm
          68 32 52 64 88 64 14 30 hintmask 10101001
          -83 callgsubr
          hintmask 01101001
          -102 callgsubr
          hintmask 10101001
          -101 callgsubr
          hintmask 10111111
          84 484 -97 callgsubr
        </CharString>
        <CharString name="adieresis.a">
          -57 callsubr
          144 64 hstemhm
          54 32 75 64 88 64 37 30 hintmask 1010010010000000
          -106 callsubr
          hintmask 0101010010000000
          -49 callsubr
          hintmask 1010010010000000
          -92 callgsubr
          hintmask 1010111110000000
          139 364 -97 callgsubr
        </CharString>
        <CharString name="ae">
          317 17 callsubr
          hstem
          68 32 276 30 310 30 vstem
          100 118 rmoveto
          82 76 48 200 24 vhcurveto
          -28 vlineto
          -48 8 -50 14 -30 vhcurveto
          -64 -58 -78 -36 -54 hhcurveto
          -58 -50 28 74 hvcurveto
          8 286 rmoveto
          24 30 58 34 62 hhcurveto
          100 20 -86 -78 -2 hvcurveto
          -208 -24 -100 -50 -108 vvcurveto
          -90 64 -38 74 60 82 40 62 62 vhcurveto
          -50 34 50 -52 88 hhcurveto
          72 36 24 22 36 hvcurveto
          -14 26 rlineto
          -26 -36 -38 -18 -54 hhcurveto
          -102 -78 94 128 2 hvcurveto
          338 hlineto
          2 12 0 10 10 vvcurveto
          142 -66 78 -110 -72 -64 -50 -76 -34 vhcurveto
          76 -14 -46 50 -80 hhcurveto
          -72 -66 -40 -22 -30 hvcurveto
          314 -164 rmoveto
          116 10 70 82 84 hhcurveto
          90 56 78 callsubr
          endchar
        </CharString>
        <CharString name="agrave">
          -16 callgsubr
          71 callgsubr
          hintmask 10111000
          -83 callgsubr
          hintmask 01111000
          -102 callgsubr
          hintmask 10111000
          -101 callgsubr
          184 454 -20 callgsubr
        </CharString>
        <CharString name="agrave.a">
          -57 callsubr
          hstemhm
          54 32 328 30 hintmask 10101100
          -106 callsubr
          hintmask 01011100
          -49 callsubr
          hintmask 10101100
          -92 callgsubr
          239 334 -20 callgsubr
        </CharString>
        <CharString name="amacron">
          -16 callgsubr
          118 28 71 callgsubr
          hintmask 10111100
          -83 callgsubr
          hintmask 01111100
          -102 callgsubr
          hintmask 10111100
          -101 callgsubr
          50 490 -65 callgsubr
          endchar
        </CharString>
        <CharString name="amacron.a">
          -57 callsubr
          150 28 7 callsubr
          hintmask 10101110
          -106 callsubr
          hintmask 01011110
          -49 callsubr
          hintmask 10101110
          -92 callgsubr
          105 370 -65 callgsubr
          endchar
        </CharString>
        <CharString name="ampersand">
          95 -12 28 628 28 hstem
          38 32 60 30 174 30 vstem
          226 16 rmoveto
          -84 -72 60 92 71 54 51 63 49 hvcurveto
          48 -91 73 -88 72 -67 rrcurveto
          -45 -43 -53 -32 -58 hhcurveto
          -66 514 rmoveto
          62 36 52 62 56 20 -46 -44 -72 -66 -50 -69 -52 vhcurveto
          -24 52 -15 51 47 vvcurveto
          390 -514 rmoveto
          -39 15 -44 27 -47 39 53 67 39 86 26 92 rrcurveto
          -30 hlineto
          -24 -88 -35 -77 -50 -62 -70 64 -72 88 -47 90 rrcurveto
          76 58 78 57 84 vvcurveto
          66 -36 50 -68 -76 -54 -60 -84 -52 17 -57 28 -57 vhcurveto
          -70 -53 -67 -58 -85 vvcurveto
          -110 86 -68 100 73 56 35 51 48 vhcurveto
          51 -43 46 -28 40 -15 rrcurveto
          endchar
        </CharString>
        <CharString name="ampersand.sc">
          17 115 callsubr
          hstem
          38 32 45 28 141 28 vstem
          70 130 rmoveto
          53 43 38 50 36 vhcurveto
          40 -68 60 -67 60 -51 rrcurveto
          -32 -35 -44 -23 -46 hhcurveto
          -70 -58 46 68 hvcurveto
          73 276 rmoveto
          47 30 41 51 46 14 -36 -33 -54 -53 -37 -57 -39 vhcurveto
          -19 38 -12 39 34 vvcurveto
          329 -391 rmoveto
          -32 11 -38 21 -38 28 45 51 30 64 23 74 rrcurveto
          -28 hlineto
          -21 -66 -28 -60 -42 -47 -59 48 -59 67 -39 67 rrcurveto
          62 44 64 44 65 vvcurveto
          52 -28 44 -58 -65 -46 -52 -65 -39 14 -43 22 -44 vhcurveto
          -58 -40 -55 -44 -67 vvcurveto
          -84 72 -56 85 61 48 27 39 40 vhcurveto
          43 -33 41 -22 34 -11 rrcurveto
          endchar
        </CharString>
        <CharString name="aogonek">
          27 98 callsubr
          -67 callgsubr
          hstemhm
          68 32 196 30 56 30 hintmask 11011110
          100 118 rmoveto
          82 72 48 210 24 vhcurveto
          -174 vlineto
          -54 -64 -52 -28 -58 hhcurveto
          -58 -50 28 74 168 callsubr
          -90 64 -38 74 64 60 36 40 50 vhcurveto
          2 hlineto
          4 -56 rlineto
          -50 -30 -40 -50 -50 vvcurveto
          -54 34 -83 callsubr
          -24 18 36 hvcurveto
          hintmask 10111110
          44 38 50 48 26 vhcurveto
          310 vlineto
          96 -34 84 -112 -78 -66 -40 -22 -30 vhcurveto
          16 -24 rlineto
          24 30 58 34 68 hhcurveto
          100 20 -86 -78 -2 hvcurveto
          hintmask 11011110
          -216 -24 -98 -50 -108 vvcurveto
          endchar
        </CharString>
        <CharString name="aogonek.a">
          73 98 callsubr
          -49 callgsubr
          hstemhm
          54 32 242 30 56 30 hintmask 11010111
          -106 callsubr
          4 -56 rlineto
          -56 -40 -34 -40 -50 vvcurveto
          -54 34 -83 callsubr
          -24 18 36 hvcurveto
          hintmask 10101111
          44 32 40 54 36 vhcurveto
          478 -28 vlineto
          hintmask 11010111
          -92 callgsubr
          endchar
        </CharString>
        <CharString name="approxequal">
          5 170 28 64 28 80 28 64 28 hstem
          42 388 vstem
          64 398 -6 callgsubr
          22 -212 -6 callgsubr
          endchar
        </CharString>
        <CharString name="aring">
          -16 callgsubr
          48 22 124 22 hstemhm
          68 32 82 24 108 24 44 30 hintmask 1011111110000000
          -83 callgsubr
          hintmask 0111111110000000
          -102 callgsubr
          hintmask 1011111110000000
          -101 callgsubr
          160 420 rmoveto
          -55 callgsubr
        </CharString>
        <CharString name="aring.a">
          -57 callsubr
          80 22 124 22 hstemhm
          54 32 105 24 108 24 67 30 hintmask 1010111111000000
          -106 callsubr
          hintmask 0101111111000000
          -49 callsubr
          hintmask 1010111111000000
          -92 callgsubr
          215 300 rmoveto
          -55 callgsubr
        </CharString>
        <CharString name="arrowdown">
          161 callgsubr
          312 -24 rmoveto
          264 268 -20 20 -232 -242 rlineto
          504 -28 -504 vlineto
          -232 242 -20 -20 264 -268 rlineto
          endchar
        </CharString>
        <CharString name="arrowup">
          161 callgsubr
          308 526 rmoveto
          -264 -268 20 -20 232 242 rlineto
          -504 28 504 vlineto
          232 -242 20 20 -264 268 rlineto
          endchar
        </CharString>
        <CharString name="asciicircum">
          5 638 32 hstem
          68 336 vstem
          68 292 rmoveto
          32 hlineto
          82 214 52 132 rlineto
          4 hlineto
          52 -132 82 -214 rlineto
          32 hlineto
          -150 378 rlineto
          -36 hlineto
          endchar
        </CharString>
        <CharString name="asciitilde">
          5 270 28 64 28 hstem
          42 388 vstem
          64 298 -6 callgsubr
          endchar
        </CharString>
        <CharString name="asterisk">
          -81 478 234 hstem
          177 32 vstem
          130 478 rmoveto
          64 82 62 -82 22 16 -54 86 88 34 -8 24 -92 -24 -6 98 rlineto
          -26 hlineto
          -6 -100 -92 26 -8 -24 88 -34 -54 -86 rlineto
          endchar
        </CharString>
        <CharString name="at">
          335 -142 28 172 28 -22 28 300 28 180 28 hstemhm
          52 30 160 30 206 25 217 30 hintmask 1101111110000000
          52 202 rmoveto
          -216 138 -128 192 68 62 18 36 56 vhcurveto
          -14 24 rlineto
          -30 -48 -54 -20 -68 hhcurveto
          -182 -120 124 194 240 174 156 184 170 110 -110 -176 -146 -82 -82 -64 -64 -22 46 96 24 hvcurveto
          34 184 rlineto
          -26 hlineto
          -8 -40 rlineto
          -2 hlineto
          32 -20 -28 16 -36 hhcurveto
          -118 -66 -128 -94 hvcurveto
          hintmask 1011111110000000
          -90 52 -44 60 46 40 32 38 36 vhcurveto
          2 hlineto
          hintmask 1101111110000000
          -52 4 38 -24 52 hhcurveto
          80 98 90 168 188 -118 124 -190 -206 -184 -168 -258 hvcurveto
          hintmask 1011111110000000
          220 -2 rmoveto
          88 58 104 94 32 20 -12 -40 26 vhcurveto
          -32 -178 rlineto
          -48 -42 -38 -22 -34 hhcurveto
          -46 -38 28 80 hvcurveto
          endchar
        </CharString>
        <CharString name="at.case">
          277 -16 28 144 28 -22 28 282 28 150 28 hstemhm
          52 30 140 30 196 26 188 30 hintmask 1101111110000000
          52 288 rmoveto
          -194 128 -110 176 54 52 14 30 44 vhcurveto
          -14 22 rlineto
          -26 -38 -46 -12 -50 hhcurveto
          -164 -112 96 182 218 158 142 172 152 98 -94 -162 -136 -70 -74 -58 -58 -14 40 102 22 hvcurveto
          36 166 -52 callgsubr
          -10 -40 rlineto
          -2 hlineto
          32 -18 -28 16 -32 hhcurveto
          -120 -60 -124 -90 hvcurveto
          hintmask 1011111110000000
          -78 50 -46 54 50 36 32 38 34 vhcurveto
          2 hlineto
          hintmask 1101111110000000
          -48 2 32 -28 48 hhcurveto
          78 84 86 154 174 -112 108 -162 -194 -172 -156 -234 hvcurveto
          hintmask 1011111110000000
          278 -98 rmoveto
          -42 -36 32 70 82 56 98 90 32 18 -12 -40 26 hvcurveto
          -32 -160 rlineto
          -48 -42 -38 -22 -32 hhcurveto
          endchar
        </CharString>
        <CharString name="atilde">
          -16 callgsubr
          92 167 callsubr
          68 32 42 55 callgsubr
          4 30 hintmask 1010111010000000
          -83 callgsubr
          hintmask 0110111010000000
          -102 callgsubr
          hintmask 1010111010000000
          -101 callgsubr
          42 464 1 callgsubr
          hintmask 1011111100000000
          -66 callsubr
          hintmask 1010111010000000
          -41 callgsubr
          endchar
        </CharString>
        <CharString name="atilde.a">
          -57 callsubr
          124 108 callgsubr
          65 55 callgsubr
          27 30 hintmask 1010011101000000
          -106 callsubr
          hintmask 0101011101000000
          -49 callsubr
          hintmask 1010011101000000
          -92 callgsubr
          97 344 1 callgsubr
          hintmask 1010111111000000
          -66 callsubr
          hintmask 1010011101000000
          -41 callgsubr
          endchar
        </CharString>
        <CharString name="b">
          73 -12 122 callsubr
          hintmask 01111100
          96 hmoveto
          26 hlineto
          hintmask 10111100
          -4 callgsubr
          endchar
        </CharString>
        <CharString name="b.sups">
          -103 77 callsubr
          60 28 208 30 vstem
          60 270 rmoveto
          22 hlineto
          4 30 rlineto
          4 hlineto
          -24 30 36 121 callgsubr
          -28 -34 hvcurveto
          2 64 rlineto
          138 -28 vlineto
          28 -414 64 callsubr
        </CharString>
        <CharString name="backslash">
          -107 -160 870 hstem
          2 350 vstem
          322 -160 rmoveto
          30 hlineto
          -320 870 rlineto
          -30 hlineto
          endchar
        </CharString>
        <CharString name="bar">
          -247 154 callgsubr
          vstem
          96 -250 rmoveto
          28 1000 -28 hlineto
          endchar
        </CharString>
        <CharString name="braceleft">
          157 callsubr
          396 24 396 22 hstemhm
          36 62 16 32 hintmask 11101000
          220 -130 rmoveto
          -64 -16 36 72 hvcurveto
          66 6 56 74 vvcurveto
          54 -10 36 -38 12 vhcurveto
          4 vlineto
          38 12 10 34 56 74 -6 56 66 vvcurveto
          72 16 36 64 vhcurveto
          32 22 -30 hlineto
          -72 -36 -26 -100 hvcurveto
          -74 8 -66 -72 vvcurveto
          hintmask 11111000
          -40 -16 -40 -70 vhcurveto
          -24 vlineto
          hintmask 11101000
          70 16 -40 -42 hvcurveto
          -70 -8 -66 -74 vvcurveto
          -100 36 -26 72 vhcurveto
          30 22 hlineto
          endchar
        </CharString>
        <CharString name="braceright">
          157 callsubr
          396 24 396 22 hstemhm
          124 32 16 62 hintmask 11110000
          18 -130 rmoveto
          -22 30 vlineto
          72 36 26 100 hvcurveto
          74 -8 66 70 vvcurveto
          hintmask 11111000
          42 16 40 70 vhcurveto
          24 vlineto
          hintmask 11110000
          -70 -16 40 40 hvcurveto
          72 8 66 74 vvcurveto
          100 -36 26 -72 vhcurveto
          -30 -22 32 hlineto
          64 16 -36 -72 hvcurveto
          -66 -6 -56 -74 vvcurveto
          -56 10 -34 38 -12 vhcurveto
          -4 vlineto
          -38 -12 -10 -36 -54 -74 6 -56 -66 vvcurveto
          -72 -16 -36 -64 vhcurveto
          endchar
        </CharString>
        <CharString name="bracketleft">
          157 callsubr
          816 22 hstem
          100 24 vstem
          100 -152 rmoveto
          152 22 -128 816 146 callgsubr
        </CharString>
        <CharString name="bracketright">
          157 callsubr
          816 22 hstem
          146 24 vstem
          18 -130 rmoveto
          -22 152 860 -152 -22 128 -816 vlineto
          endchar
        </CharString>
        <CharString name="breve">
          65 576 26 hstem
          150 90 callsubr
          vstem
          266 576 -94 callgsubr
        </CharString>
        <CharString name="brokenbar">
          -247 154 callgsubr
          vstem
          96 274 rmoveto
          28 476 -28 hlineto
          -528 vmoveto
          -472 28 472 vlineto
          endchar
        </CharString>
        <CharString name="bullet">
          -195 158 212 hstem
          40 192 vstem
          136 158 rmoveto
          48 48 40 66 66 -48 40 -48 -48 -48 -40 -66 -66 48 -40 48 hvcurveto
          endchar
        </CharString>
        <CharString name="c">
          -21 38 callsubr
          hstem
          54 32 -73 callsubr
          endchar
        </CharString>
        <CharString name="c.sups">
          -167 77 callsubr
          34 30 vstem
          182 262 rmoveto
          48 28 18 20 24 hvcurveto
          -14 20 rlineto
          -18 -22 -26 -14 -38 hhcurveto
          -70 -48 58 82 82 50 58 66 38 18 -10 -20 24 hvcurveto
          16 20 rlineto
          18 -22 -28 18 -44 hhcurveto
          -78 -70 -60 -106 -106 62 -60 86 hvcurveto
          endchar
        </CharString>
        <CharString name="cacute">
          -21 38 callsubr
          hstem
          54 32 -73 callsubr
          295 468 -45 callgsubr
        </CharString>
        <CharString name="caron">
          65 572 32 hstem
          158 216 vstem
          252 572 -78 callsubr
        </CharString>
        <CharString name="ccaron">
          -21 38 callsubr
          82 32 hstem
          54 32 -73 callsubr
          201 334 -78 callsubr
        </CharString>
        <CharString name="ccedilla">
          -21 -206 26 169 27 446 28 hstem
          54 32 201 30 vstem
          280 -12 rmoveto
          56 4 47 26 37 34 -18 22 rcurveline
          -32 -34 -46 -26 -54 hhcurveto
          -110 -72 139 callsubr
          80 92 102 50 38 -24 -30 32 hvcurveto
          20 22 rlineto
          30 -32 -42 30 -66 hhcurveto
          -114 -100 -92 -160 -151 84 -91 114 -7 hvcurveto
          -33 -63 rlineto
          38 -10 -101 callsubr
          18 -32 10 vhcurveto
          endchar
        </CharString>
        <CharString name="ccircumflex">
          -21 38 callsubr
          184 32 hstem
          54 32 -73 callsubr
          107 334 -26 callsubr
          51 callgsubr
        </CharString>
        <CharString name="cdotaccent">
          -21 38 callsubr
          110 70 hstem
          54 32 151 64 -73 callsubr
          215 362 -106 callgsubr
        </CharString>
        <CharString name="cedilla">
          65 -206 26 -26 208 hstemhm
          300 30 hintmask 01100000
          232 -74 rmoveto
          hintmask 10100000
          38 -10 -101 callsubr
          18 -32 10 vhcurveto
          30 58 81 callgsubr
        </CharString>
        <CharString name="cent">
          5 84 28 400 28 112 -20 hstem
          62 32 158 28 vstem
          252 113 rmoveto
          -96 11 -62 77 111 vvcurveto
          110 68 77 90 11 vhcurveto
          158 -342 rmoveto
          -33 -30 -45 -25 -52 -1 rrcurveto
          400 vlineto
          48 -1 39 -22 31 -29 18 20 rcurveline
          -31 29 -41 30 -64 1 rrcurveto
          112 -28 -113 vlineto
          -104 -11 -86 -78 -138 vvcurveto
          -136 80 -81 110 -10 vhcurveto
          -111 28 110 vlineto
          60 1 49 28 39 35 rrcurveto
          endchar
        </CharString>
        <CharString name="circumflex">
          65 674 32 hstem
          158 216 vstem
          158 572 -26 callsubr
          51 callgsubr
        </CharString>
        <CharString name="colon">
          -259 -12 78 312 78 hstem
          68 72 vstem
          68 416 rmoveto
          -61 callgsubr
          -390 vmoveto
          -61 callgsubr
          endchar
        </CharString>
        <CharString name="colon.sups">
          -315 432 68 172 129 callsubr
          466 rmoveto
          -12 callsubr
          240 vmoveto
          -12 callsubr
          endchar
        </CharString>
        <CharString name="colonmonetary">
          5 -12 28 -27 28 607 28 -6 -20 hstemhm
          66 34 158 28 hintmask 10101100
          267 621 rmoveto
          2 10 11 1 12 hhcurveto
          14 12 -2 -4 12 hvcurveto
          hintmask 01101100
          -71 -601 -26 3 -23 9 -20 15 rlinecurve
          -25 23 rmoveto
          -47 52 -26 90 113 vvcurveto
          152 49 106 89 33 vhcurveto
          hintmask 10011100
          188 -513 rmoveto
          -39 -53 -39 -28 -53 -3 70 589 rcurveline
          19 -13 17 -17 15 -21 22 20 rcurveline
          -16 23 -24 23 -30 15 14 115 rcurveline
          -28 hlineto
          -12 -104 rlineto
          hintmask 10101100
          4 -14 -13 2 -15 hhcurveto
          -10 -10 -1 -1 -10 hvcurveto
          12 100 -52 callgsubr
          -13 -106 rlineto
          -109 -30 -66 -119 -173 vvcurveto
          -135 38 -103 65 -54 vhcurveto
          -17 -140 rlineto
          28 hlineto
          14 122 21 -13 24 -7 25 -3 rlinecurve
          -12 -99 rlineto
          28 hlineto
          12 98 69 3 47 35 40 56 rlinecurve
          endchar
        </CharString>
        <CharString name="comma">
          -259 -6 72 hstem
          120 32 vstem
          60 -150 44 callsubr
        </CharString>
        <CharString name="comma.dnom">
          -315 -2 148 callgsubr
          -104 -33 callsubr
        </CharString>
        <CharString name="comma.numr">
          -315 268 148 callgsubr
          166 -33 callsubr
        </CharString>
        <CharString name="comma.subs">
          -315 -172 148 callgsubr
          -274 -33 callsubr
        </CharString>
        <CharString name="comma.sups">
          -315 438 148 callgsubr
          336 -33 callsubr
        </CharString>
        <CharString name="copyright">
          273 -12 26 110 30 324 30 118 26 hstem
          52 30 120 34 422 30 vstem
          52 322 -7 callsubr
          120 hmoveto
          -126 80 -72 92 66 36 27 33 36 vhcurveto
          -16 22 rlineto
          -29 -32 -38 -23 -50 hhcurveto
          -84 -56 64 104 94 60 62 82 42 28 -16 -30 32 hvcurveto
          18 22 rlineto
          32 -32 -34 22 -52 hhcurveto
          -94 -84 -70 -116 hvcurveto
          endchar
        </CharString>
        <CharString name="currency">
          5 138 28 326 28 hstem
          60 32 288 32 vstem
          52 118 rmoveto
          65 68 rlineto
          -31 32 42 -17 45 hhcurveto
          44 43 17 31 31 hvcurveto
          66 -68 20 22 -66 68 rlineto
          23 32 15 41 47 vvcurveto
          49 -15 42 -24 32 vhcurveto
          67 69 -20 22 -66 -69 rlineto
          30 -32 -42 17 -44 hhcurveto
          -45 -42 -17 -30 -31 hvcurveto
          -66 69 -20 -22 66 -69 rlineto
          -24 -32 -14 -42 -49 vvcurveto
          -47 14 -41 24 -32 vhcurveto
          -66 -68 rlineto
          60 188 rmoveto
          96 66 68 78 78 66 -68 -96 -96 -66 -66 -78 -78 -66 66 96 vhcurveto
          endchar
        </CharString>
        <CharString name="d">
          73 -12 59 callgsubr
          hintmask 10111100
          16 callgsubr
          hintmask 01111100
          13 callgsubr
          hintmask 10111100
          -38 callgsubr
          endchar
        </CharString>
        <CharString name="d.sups">
          -103 262 26 280 74 callgsubr
          176 262 rmoveto
          40 28 22 24 28 hvcurveto
          4 hlineto
          6 -38 rlineto
          22 474 -28 -130 hlineto
          2 -58 rlineto
          24 -32 -30 14 -36 hhcurveto
          -76 -66 -62 -98 -110 52 -62 86 hvcurveto
          2 26 rmoveto
          -76 -34 58 88 76 74 callsubr
          hvcurveto
          -186 vlineto
          -32 -36 -30 -20 -32 hhcurveto
          endchar
        </CharString>
        <CharString name="dagger">
          -59 533 30 hstem
          189 30 vstem
          188 -80 rmoveto
          32 hlineto
          -2 614 58 callgsubr
          rlineto
          endchar
        </CharString>
        <CharString name="daggerdbl">
          -59 69 30 434 30 hstem
          189 30 vstem
          62 68 rmoveto
          128 2 -2 -150 rlineto
          32 hlineto
          -2 150 128 -2 rlineto
          32 vlineto
          -128 -2 2 218 -2 218 58 callgsubr
          -2 -218 2 -218 -128 2 rlineto
          endchar
        </CharString>
        <CharString name="dcaron">
          73 -12 59 callgsubr
          67 29 hintmask 10111110
          16 callgsubr
          hintmask 01111110
          13 callgsubr
          hintmask 10111110
          -38 callgsubr
          448 310 -2 callsubr
        </CharString>
        <CharString name="dcroat">
          73 -12 28 5 -21 442 28 114 28 -28 138 7 callsubr
          hintmask 10110110
          414 100 rmoveto
          -54 -54 -50 -30 -56 hhcurveto
          -108 -60 86 126 118 78 96 102 50 44 -18 -48 54 hvcurveto
          30 236 rmoveto
          hintmask 10101110
          110 -30 vlineto
          hintmask 10110110
          -110 -172 -28 172 -84 vlineto
          83 callsubr
          -116 -98 -94 -148 -156 78 -84 120 66 54 36 40 40 hvcurveto
          2 hlineto
          hintmask 01110110
          4 -64 rlineto
          26 584 hlineto
          76 4 rlineto
          24 vlineto
          endchar
        </CharString>
        <CharString name="degree">
          -163 454 26 178 26 hstem
          42 28 164 28 vstem
          152 454 rmoveto
          56 54 42 72 74 -54 42 -56 -56 -54 -42 -74 -72 54 -42 56 hvcurveto
          26 vmoveto
          -48 -34 38 50 52 34 38 48 48 34 -38 -52 -50 -34 -38 -48 hvcurveto
          endchar
        </CharString>
        <CharString name="dieresis">
          65 602 64 hstem
          158 130 callsubr
          190 602 -97 callgsubr
        </CharString>
        <CharString name="divide">
          5 114 70 132 28 130 70 hstem
          204 64 vstem
          236 474 rmoveto
          18 14 14 22 20 -14 14 -18 -28 callgsubr
          hvcurveto
          -32 -324 rmoveto
          -64 callsubr
          18 14 14 22 20 -58 callsubr
          -20 vhcurveto
          -170 166 rmoveto
          84 callsubr
          endchar
        </CharString>
        <CharString name="dollar">
          5 -12 28 -27 27 608 28 hstemhm
          88 32 108 30 122 32 hintmask 01111100
          394 582 rmoveto
          -34 36 -37 30 -65 4 rrcurveto
          98 -30 -99 vlineto
          -80 -7 -60 -61 -83 -206 292 62 -210 vvcurveto
          -76 -48 -54 -88 -72 -56 38 34 -36 vhcurveto
          -18 -22 37 -35 58 -37 71 -5 rlinecurve
          hintmask 10111100
          -99 30 98 vlineto
          86 6 68 59 95 234 -292 -66 186 vvcurveto
          68 50 54 72 64 30 -24 -38 38 vhcurveto
          endchar
        </CharString>
        <CharString name="dong">
          5 0 28 78 28 310 28 94 28 hstem
          70 32 244 30 vstem
          80 hmoveto
          326 28 -326 hlineto
          266 172 rmoveto
          -46 -40 -40 -20 -40 hhcurveto
          -80 -44 64 98 80 56 68 72 46 28 -16 -38 42 hvcurveto
          30 204 rmoveto
          82 -30 -82 -146 -28 146 -50 vlineto
          4 -96 rlineto
          32 -36 -30 20 -52 hhcurveto
          -86 -76 -70 -108 -122 60 -66 94 52 38 26 32 30 hvcurveto
          4 hlineto
          4 -48 rlineto
          24 450 hlineto
          82 4 rlineto
          24 vlineto
          endchar
        </CharString>
        <CharString name="dotaccent">
          65 600 70 hstem
          234 64 vstem
          266 600 -106 callgsubr
        </CharString>
        <CharString name="dotlessi">
          -245 21 -21 478 -20 23 callsubr
          endchar
        </CharString>
        <CharString name="e">
          11 -12 113 callsubr
          324 30 vstem
          -107 callgsubr
          endchar
        </CharString>
        <CharString name="e.sups">
          -139 262 26 136 26 118 26 hstem
          32 30 208 28 vstem
          180 262 -44 callgsubr
        </CharString>
        <CharString name="eacute">
          11 -12 113 callsubr
          324 30 vstem
          -107 callgsubr
          -70 442 -45 callgsubr
        </CharString>
        <CharString name="eacute.sups">
          88 callgsubr
          136 648 -26 callsubr
          70 90 rlineto
          -36 hlineto
          -18 -466 -44 callgsubr
        </CharString>
        <CharString name="ebreve">
          -15 callsubr
          86 26 hstem
          54 32 58 90 callsubr
          34 30 vstem
          -107 callgsubr
          -150 312 -94 callgsubr
        </CharString>
        <CharString name="ecaron">
          -15 callsubr
          82 32 hstem
          54 32 324 30 vstem
          -107 callgsubr
          -164 308 -78 callsubr
        </CharString>
        <CharString name="ecircumflex">
          -15 callsubr
          184 32 hstem
          54 32 324 30 vstem
          -107 callgsubr
          -258 308 -26 callsubr
          51 callgsubr
        </CharString>
        <CharString name="edieresis">
          -15 callsubr
          112 64 hstem
          54 32 66 64 88 64 42 30 vstem
          -107 callgsubr
          -226 338 -97 callgsubr
        </CharString>
        <CharString name="edotaccent">
          -15 callsubr
          110 70 hstem
          54 32 142 64 118 30 vstem
          -107 callgsubr
          -150 336 -106 callgsubr
        </CharString>
        <CharString name="egrave">
          11 -12 113 callsubr
          324 30 vstem
          -107 callgsubr
          -126 308 -20 callgsubr
        </CharString>
        <CharString name="egrave.sups">
          88 callgsubr
          186 648 -26 callsubr
          -60 90 rlineto
          -36 hlineto
          62 -466 -44 callgsubr
        </CharString>
        <CharString name="eight">
          5 137 callsubr
          hstemhm
          40 68 callgsubr
          72 -87 callgsubr
        </CharString>
        <CharString name="eight.dnom">
          -107 -12 21 callsubr
          98 -85 callsubr
        </CharString>
        <CharString name="eight.numr">
          -107 258 21 callsubr
          368 -85 callsubr
        </CharString>
        <CharString name="eight.onum">
          29 137 callsubr
          hstemhm
          48 68 callgsubr
          80 -87 callgsubr
        </CharString>
        <CharString name="eight.pnum">
          39 137 callsubr
          hstemhm
          58 68 callgsubr
          90 -87 callgsubr
        </CharString>
        <CharString name="eight.sc">
          4 115 callsubr
          hstemhm
          60 31 2 32 240 31 -13 32 hintmask 11100100
          91 130 rmoveto
          59 51 45 61 30 vhcurveto
          93 -32 87 -28 -82 vvcurveto
          -60 -55 -46 -86 -88 -63 50 64 vhcurveto
          hintmask 11011000
          192 134 rmoveto
          -78 27 -80 30 75 vvcurveto
          58 47 40 69 79 45 -48 -59 -45 -30 -42 -52 -36 vhcurveto
          hintmask 11100100
          -223 -135 rmoveto
          -80 76 -61 106 103 70 60 74 70 -52 33 -49 27 vhcurveto
          3 vlineto
          hintmask 11011000
          33 25 49 50 57 vvcurveto
          77 -56 58 -98 -83 -66 -52 -74 -53 43 -39 41 -24 156 callsubr
          -54 -26 -63 -50 -71 vvcurveto
          endchar
        </CharString>
        <CharString name="eight.subs">
          -107 -182 21 callsubr
          -72 -85 callsubr
        </CharString>
        <CharString name="eight.sups">
          -107 428 21 callsubr
          538 -85 callsubr
        </CharString>
        <CharString name="eight.tnum">
          5 137 callsubr
          hstemhm
          40 68 callgsubr
          72 -87 callgsubr
        </CharString>
        <CharString name="ellipsis">
          457 -12 78 hstem
          108 72 266 72 266 72 vstem
          108 26 rmoveto
          -61 callgsubr
          338 hmoveto
          -61 callgsubr
          338 hmoveto
          -61 callgsubr
          endchar
        </CharString>
        <CharString name="emacron">
          -15 callsubr
          118 28 hstem
          54 32 324 30 vstem
          -107 callgsubr
          -260 344 -65 callgsubr
          endchar
        </CharString>
        <CharString name="emdash">
          80 callgsubr
        </CharString>
        <CharString name="emdash.sc">
          213 258 28 hstem
          40 600 vstem
          40 258 rmoveto
          600 28 -600 hlineto
          endchar
        </CharString>
        <CharString name="emdash.sups">
          94 624 23 hstem
          40 482 vstem
          40 624 rmoveto
          482 23 -482 hlineto
          endchar
        </CharString>
        <CharString name="endash">
          13 236 28 hstem
          40 400 vstem
          40 236 rmoveto
          400 28 -400 hlineto
          endchar
        </CharString>
        <CharString name="endash.sc">
          -57 258 28 hstem
          40 328 vstem
          40 258 rmoveto
          328 28 -328 hlineto
          endchar
        </CharString>
        <CharString name="endash.sups">
          -120 624 23 hstem
          40 268 vstem
          40 624 rmoveto
          268 23 -268 hlineto
          endchar
        </CharString>
        <CharString name="eogonek">
          11 98 callsubr
          113 callsubr
          190 30 104 30 vstem
          -31 callsubr
          -156 98 -94 120 24 22 2 8 22 vhcurveto
          -28 -24 -36 -46 -50 vvcurveto
          21 callgsubr
          28 46 86 64 hvcurveto
          -46 callgsubr
          -114 -74 94 128 hvcurveto
          352 hlineto
          2 12 0 8 12 vvcurveto
          142 -70 78 -110 -106 -100 -96 -156 vhcurveto
          32 26 rmoveto
          122 10 78 76 86 hhcurveto
          91 59 78 callsubr
          endchar
        </CharString>
        <CharString name="equal">
          145 callgsubr
          34 416 rmoveto
          84 callsubr
          -228 vmoveto
          84 callsubr
          endchar
        </CharString>
        <CharString name="estimated">
          333 -12 20 308 18 306 20 hstem
          46 130 450 128 vstem
          184 108 rmoveto
          -4 6 -4 6 8 vvcurveto
          184 vlineto
          2 2 2 2 vhcurveto
          574 hlineto
          2 0 4 2 vvcurveto
          186 -158 150 -196 -196 -158 -150 -186 -186 158 -150 196 114 102 52 80 66 vhcurveto
          -52 hlineto
          -68 -56 -82 -44 -90 hhcurveto
          -86 -78 38 62 -54 hvcurveto
          -4 226 rmoveto
          -2 -2 2 4 hvcurveto
          180 vlineto
          8 4 8 4 6 vhcurveto
          60 56 76 38 86 hhcurveto
          82 76 -36 -58 56 hvcurveto
          6 -6 4 -8 -8 vvcurveto
          -184 vlineto
          -4 -2 -2 -4 vhcurveto
          endchar
        </CharString>
        <CharString name="eth">
          65 -12 28 396 28 282 -20 hstem
          62 32 338 32 vstem
          266 16 rmoveto
          -94 -78 84 118 102 59 92 115 52 55 -17 -80 54 hvcurveto
          2 -20 1 -22 -23 vvcurveto
          -128 -50 -106 -116 vhcurveto
          198 662 rmoveto
          -12 22 -142 -74 -42 38 -47 31 -49 27 rlinecurve
          -16 -22 45 -26 44 -28 38 -34 rlinecurve
          -133 -70 12 -22 141 74 58 -57 44 -72 18 -104 rlinecurve
          52 -41 -53 27 -59 hhcurveto
          -126 -82 -92 -130 -144 100 -86 104 116 82 102 160 165 -55 111 -80 81 hvcurveto
          endchar
        </CharString>
        <CharString name="exclam">
          -219 -12 78 -57 -21 682 -20 hstemhm
          88 72 -52 32 hintmask 01101000
          112 172 rmoveto
          24 hlineto
          4 436 rlineto
          62 -32 -62 vlineto
          hintmask 01110000
          -20 -582 165 callsubr
          hintmask 10110000
          117 callsubr
          vhcurveto
          hintmask 01110000
          -44 callsubr
          -26 hvcurveto
          endchar
        </CharString>
        <CharString name="exclamdown">
          -219 412 78 0 -20 hstemhm
          88 72 -52 32 hintmask 01010000
          136 306 rmoveto
          -24 hlineto
          -4 -436 rlineto
          -62 32 62 vlineto
          hintmask 01100000
          20 582 166 callsubr
          hintmask 10100000
          -26 18 -14 18 vhcurveto
          hintmask 01100000
          18 18 14 26 hvcurveto
          endchar
        </CharString>
        <CharString name="f">
          -215 21 -21 450 28 228 28 hstem
          100 30 vstem
          276 718 rmoveto
          134 callgsubr
          vlineto
          -66 -4 rlineto
          -24 66 23 callgsubr
          72 24 42 54 18 20 -4 -10 20 vhcurveto
          endchar
        </CharString>
        <CharString name="f.sups">
          -291 562 24 140 26 hstem
          68 28 vstem
          194 742 rmoveto
          8 -18 -12 2 -18 hhcurveto
          -50 -28 -38 -62 hvcurveto
          -66 vlineto
          -46 -2 rlineto
          -22 46 -292 28 292 76 24 -76 70 vlineto
          40 16 30 34 18 12 -4 -4 10 vhcurveto
          endchar
        </CharString>
        <CharString name="f_f">
          41 21 -21 450 28 218 28 -18 28 hstemhm
          100 30 229 30 hintmask 11011100
          535 718 rmoveto
          134 callgsubr
          -229 94 vlineto
          hintmask 11101100
          78 30 46 60 22 23 -4 -12 25 vhcurveto
          hintmask 11011100
          10 26 rlineto
          hintmask 11101100
          12 -26 -28 6 -24 hhcurveto
          -74 -48 -48 -100 hvcurveto
          -98 vlineto
          -65 -4 rlineto
          -24 65 -450 30 450 229 23 callgsubr
          hintmask 11011100
          72 24 42 54 18 20 -4 -10 20 vhcurveto
          endchar
        </CharString>
        <CharString name="f_t">
          51 166 callgsubr
          hstemhm
          100 30 192 30 hintmask 10111100
          498 32 rmoveto
          -8 -18 -26 -8 -18 hhcurveto
          -70 -14 44 62 hvcurveto
          328 142 28 -142 140 -26 vlineto
          -4 -140 rlineto
          -192 114 hlineto
          72 24 42 54 18 20 -4 -10 20 vhcurveto
          10 26 rlineto
          134 callgsubr
          vlineto
          -66 -4 rlineto
          -24 66 vlineto
          hintmask 01111100
          -450 30 450 192 -324 vlineto
          hintmask 10111100
          -82 24 -56 88 16 30 8 10 28 vhcurveto
          endchar
        </CharString>
        <CharString name="fi">
          25 21 -21 450 28 122 68 38 28 hstemhm
          100 30 218 68 -50 30 hintmask 11111010
          100 478 rmoveto
          -66 -4 rlineto
          -24 66 -8 callgsubr
          266 -596 rmoveto
          30 478 -30 hlineto
          hintmask 11111100
          16 190 rmoveto
          -18 -16 -12 -22 -20 16 -14 18 18 16 14 20 22 -16 12 -18 hvcurveto
          endchar
        </CharString>
        <CharString name="figuredash">
          5 236 28 hstem
          40 394 vstem
          40 236 rmoveto
          394 28 -394 hlineto
          endchar
        </CharString>
        <CharString name="five">
          5 -12 47 callgsubr
          74 -65 callsubr
        </CharString>
        <CharString name="five.dnom">
          -107 -12 82 callgsubr
          62 -72 callsubr
          endchar
        </CharString>
        <CharString name="five.numr">
          -107 258 82 callgsubr
          332 -72 callsubr
          endchar
        </CharString>
        <CharString name="five.onum">
          5 -82 47 callgsubr
          4 -65 callsubr
        </CharString>
        <CharString name="five.pnum">
          5 -12 47 callgsubr
          74 -65 callsubr
        </CharString>
        <CharString name="five.sc">
          -26 -12 28 277 27 163 27 hstem
          357 33 vstem
          36 56 rmoveto
          -32 35 48 -36 92 hhcurveto
          88 91 60 110 111 -79 51 -95 -42 -33 -14 -16 -29 hvcurveto
          17 193 rlineto
          230 27 -257 hlineto
          -20 -240 24 -14 rlineto
          21 32 31 16 45 hhcurveto
          86 57 -53 -83 -86 -69 -55 -76 -82 -43 31 31 -33 hvcurveto
          endchar
        </CharString>
        <CharString name="five.subs">
          -107 -182 82 callgsubr
          -108 -72 callsubr
          endchar
        </CharString>
        <CharString name="five.sups">
          -107 428 82 callgsubr
          502 -72 callsubr
          endchar
        </CharString>
        <CharString name="five.tnum">
          5 -82 47 callgsubr
          4 -65 callsubr
        </CharString>
        <CharString name="fiveeighths">
          331 -12 26 244 26 90 28 98 26 106 28 hstemhm
          280 30 178 48 callgsubr
          hintmask 1111111001000000
          42 332 -72 callsubr
          162 -362 -46 callsubr
          322 110 -54 callsubr
          hintmask 1111110110000000
          -60 callsubr
          hintmask 1111111001000000
          -51 callsubr
          hintmask 1111110110000000
          -54 callgsubr
          hintmask 1111111001000000
          -40 -22 -36 -40 -52 vvcurveto
          endchar
        </CharString>
        <CharString name="fl">
          15 166 callgsubr
          -12 -20 hstemhm
          100 30 218 30 hintmask 10110110
          100 478 rmoveto
          -66 -4 rlineto
          -24 66 vlineto
          hintmask 01110110
          -8 callgsubr
          hintmask 10101110
          316 -578 rmoveto
          -2 -10 -4 0 -4 hhcurveto
          -12 -8 10 20 hvcurveto
          676 -30 -670 vlineto
          -46 18 -18 30 12 6 2 2 8 vhcurveto
          endchar
        </CharString>
        <CharString name="fl.a">
          25 450 28 228 28 hstem
          100 30 236 30 vstem
          100 478 rmoveto
          -66 -4 rlineto
          -24 66 -8 callgsubr
          266 126 rmoveto
          -722 30 722 vlineto
          endchar
        </CharString>
        <CharString name="four">
          5 150 callsubr
          312 30 hintmask 11011000
          58 10 callgsubr
        </CharString>
        <CharString name="four.dnom">
          -107 118 69 callgsubr
          144 -52 callsubr
          -118 28 118 58 vlineto
          endchar
        </CharString>
        <CharString name="four.numr">
          -107 388 69 callgsubr
          414 -52 callsubr
          -118 28 118 58 vlineto
          endchar
        </CharString>
        <CharString name="four.onum">
          29 104 28 438 -20 hstem
          320 30 vstem
          66 15 callgsubr
        </CharString>
        <CharString name="four.pnum">
          19 150 callsubr
          328 30 hintmask 11011000
          74 10 callgsubr
        </CharString>
        <CharString name="four.sc">
          -20 0 182 -27 27 278 50 0 -20 hstemhm
          300 30 hintmask 01011000
          77 182 rmoveto
          hintmask 01101000
          175 217 18 23 14 17 15 21 rlinecurve
          3 hlineto
          -1 -23 -1 -41 -23 vvcurveto
          -191 vlineto
          117 hmoveto
          -87 328 -24 hlineto
          -271 -339 rlineto
          -16 265 vlineto
          hintmask 10011000
          -155 30 vlineto
          hintmask 01011000
          155 87 vlineto
          endchar
        </CharString>
        <CharString name="four.subs">
          -107 -52 69 callgsubr
          -26 -52 callsubr
          -118 28 118 58 vlineto
          endchar
        </CharString>
        <CharString name="four.sups">
          -107 558 69 callgsubr
          584 -52 callsubr
          -118 28 118 58 vlineto
          endchar
        </CharString>
        <CharString name="four.tnum">
          5 104 28 438 -20 hstem
          312 30 vstem
          58 15 callgsubr
        </CharString>
        <CharString name="fraction">
          6 callsubr
        </CharString>
        <CharString name="g">
          -30 callsubr
          54 callgsubr
          hintmask 1111010011000000
          -90 callgsubr
          hintmask 1111000111000000
          -72 callgsubr
          hintmask 1110101011000000
          -42 callgsubr
          hintmask 1111000111000000
          -24 callsubr
          hintmask 1111010011000000
          69 callsubr
          hintmask 1110101011000000
          -55 callsubr
          endchar
        </CharString>
        <CharString name="g.a">
          -18 callgsubr
          hstemhm
          54 32 328 30 hintmask 11101100
          -57 callgsubr
          hintmask 11011100
          526 -28 vlineto
          hintmask 11101100
          -99 callgsubr
          endchar
        </CharString>
        <CharString name="g.supa">
          -103 118 28 126 28 268 74 callgsubr
          74 178 rmoveto
          -14 -24 rlineto
          -22 32 38 -14 42 hhcurveto
          82 50 52 76 hvcurveto
          340 -22 vlineto
          -4 -30 rlineto
          -4 hlineto
          24 -28 -30 14 -36 hhcurveto
          -76 -66 -62 -100 -98 52 -62 86 40 28 22 28 34 hvcurveto
          -2 -52 rlineto
          -20 vlineto
          -64 -38 -40 -65 -35 -34 10 22 -30 vhcurveto
          104 122 rmoveto
          -76 -34 56 78 76 74 callsubr
          hvcurveto
          -176 vlineto
          -32 -36 -30 -18 -32 hhcurveto
          endchar
        </CharString>
        <CharString name="g.sups">
          -139 118 26 124 30 70 26 164 26 -16 26 hstemhm
          36 28 -16 28 -22 28 166 28 14 28 hintmask 1111010011000000
          64 209 rmoveto
          23 14 22 28 18 vhcurveto
          -4 14 18 0 8 hhcurveto
          68 hlineto
          48 28 -12 -34 -40 -48 -38 -72 -68 -38 24 41 hvcurveto
          -28 -3 rmoveto
          -54 48 -34 82 94 58 52 54 52 -32 22 -73 vhcurveto
          hintmask 1111000110000000
          -69 hlineto
          -46 -16 16 24 20 12 14 14 10 hvcurveto
          -10 16 20 -4 18 hhcurveto
          63 51 48 66 30 -14 30 -20 16 hvcurveto
          72 26 -103 hlineto
          hintmask 1110101010000000
          6 -14 -14 4 -21 hhcurveto
          -64 -50 -46 -66 -38 20 -31 21 -17 hvcurveto
          -4 vlineto
          hintmask 1111000110000000
          -15 -10 -20 -20 -26 vvcurveto
          -24 12 -18 16 -10 vhcurveto
          -4 vlineto
          hintmask 1111010011000000
          -30 -20 -16 -26 -28 vvcurveto
          hintmask 1111001010000000
          126 188 rmoveto
          -50 -36 36 52 54 36 32 50 46 40 -33 -53 -52 -40 -36 -46 hvcurveto
          endchar
        </CharString>
        <CharString name="gbreve">
          -30 callsubr
          86 26 95 callgsubr
          -2 90 callsubr
          26 32 34 32 hintmask 1111011000011000
          -90 callgsubr
          hintmask 1111010010011000
          -72 callgsubr
          hintmask 1110110100011000
          -42 callgsubr
          hintmask 1111010010011000
          -24 callsubr
          hintmask 1111011000011000
          69 callsubr
          hintmask 1110110100011000
          -55 callsubr
          hintmask 1111010001111000
          -10 396 -94 callgsubr
        </CharString>
        <CharString name="gbreve.a">
          -18 callgsubr
          118 26 hstemhm
          54 32 75 90 callsubr
          21 30 hintmask 1110110010000000
          -57 callgsubr
          hintmask 1101110010000000
          526 -28 vlineto
          hintmask 1110110010000000
          -99 callgsubr
          hintmask 1110111110000000
          23 550 -94 callgsubr
        </CharString>
        <CharString name="gcaron">
          -30 callsubr
          82 -63 callgsubr
          -24 392 -78 callsubr
        </CharString>
        <CharString name="gcaron.a">
          -18 callgsubr
          114 32 7 callsubr
          hintmask 11100110
          -57 callgsubr
          hintmask 11010110
          526 -28 vlineto
          hintmask 11100110
          -99 callgsubr
          hintmask 11101110
          9 546 -78 callsubr
        </CharString>
        <CharString name="gcircumflex">
          -30 callsubr
          184 -63 callgsubr
          -118 392 -26 callsubr
          51 callgsubr
        </CharString>
        <CharString name="gcircumflex.a">
          -18 callgsubr
          216 32 7 callsubr
          hintmask 11100110
          -57 callgsubr
          hintmask 11010110
          526 -28 vlineto
          hintmask 11100110
          -99 callgsubr
          -85 546 -26 callsubr
          hintmask 11101110
          51 callgsubr
        </CharString>
        <CharString name="gdotaccent">
          -30 callsubr
          110 70 95 callgsubr
          82 64 110 32 34 32 hintmask 1111001000110000
          -90 callgsubr
          hintmask 1111000010110000
          -72 callgsubr
          hintmask 1110100100110000
          -42 callgsubr
          hintmask 1111000010110000
          -24 callsubr
          hintmask 1111001000110000
          69 callsubr
          hintmask 1110110101110000
          -55 callsubr
          -10 420 -106 callgsubr
        </CharString>
        <CharString name="gdotaccent.a">
          -18 callgsubr
          142 70 hstemhm
          54 32 159 64 105 30 hintmask 11100101
          -57 callgsubr
          hintmask 11010101
          526 -28 vlineto
          hintmask 11100101
          -99 callgsubr
          hintmask 11101111
          23 574 -106 callgsubr
        </CharString>
        <CharString name="germandbls">
          63 -12 28 5 -21 704 28 hstemhm
          96 30 128 32 70 32 80 32 hintmask 01111110
          96 hmoveto
          30 524 hlineto
          124 52 56 78 66 34 -44 -60 vhcurveto
          -92 -102 -32 -100 -146 214 40 -148 vvcurveto
          hintmask 10111110
          -54 -36 -52 -72 -44 -34 16 32 -38 vhcurveto
          -18 -24 rlineto
          -32 36 46 -20 52 hhcurveto
          80 60 58 78 hvcurveto
          170 -214 -38 122 84 102 36 104 vvcurveto
          74 -50 56 -80 -96 -66 -72 -122 vhcurveto
          endchar
        </CharString>
        <CharString name="germandbls.sc">
          423 115 callsubr
          hstem
          78 32 266 32 110 32 266 32 vstem
          48 64 -100 callgsubr
          418 -24 -100 callgsubr
          endchar
        </CharString>
        <CharString name="grave">
          65 139 callgsubr
          186 132 vstem
          290 572 -20 callgsubr
        </CharString>
        <CharString name="greater">
          5 152 360 hstem
          406 32 vstem
          438 350 45 callsubr
        </CharString>
        <CharString name="greaterequal">
          5 0 28 hstem
          406 32 vstem
          34 hmoveto
          84 callsubr
          404 322 45 callsubr
        </CharString>
        <CharString name="guillemotleft">
          -79 74 356 hstem
          42 34 100 65 callsubr
          272 -164 87 callsubr
          endchar
        </CharString>
        <CharString name="guillemotright">
          -79 74 356 hstem
          178 34 100 34 vstem
          54 90 30 callsubr
          10 -162 30 callsubr
          endchar
        </CharString>
        <CharString name="guilsinglleft">
          -213 74 356 hstem
          42 65 callsubr
          endchar
        </CharString>
        <CharString name="guilsinglright">
          -213 74 356 hstem
          178 34 vstem
          54 90 30 callsubr
          endchar
        </CharString>
        <CharString name="h">
          55 21 -48 callgsubr
          232 -20 hstem
          96 30 282 30 vstem
          -86 callsubr
          -52 -52 vhcurveto
          108 vlineto
          214 -30 vlineto
          endchar
        </CharString>
        <CharString name="h.sups">
          -115 79 callgsubr
          30 hhcurveto
          64 14 112 callsubr
          -24 50 -76 -42 -40 -26 -32 -30 vhcurveto
          72 vlineto
          136 -28 vlineto
          endchar
        </CharString>
        <CharString name="hbar">
          55 21 134 callsubr
          282 30 hintmask 11101100
          126 488 rmoveto
          96 192 28 -192 vlineto
          hintmask 11011100
          110 -30 vlineto
          hintmask 11101100
          -110 vlineto
          -78 -4 rlineto
          -24 78 -584 30 346 145 callsubr
          -284 30 288 vlineto
          124 -46 58 -98 -66 -50 -38 -52 -52 vhcurveto
          endchar
        </CharString>
        <CharString name="hcircumflex">
          55 21 -48 callgsubr
          232 -20 120 30 hstem
          96 30 282 30 vstem
          -86 callsubr
          -52 -52 vhcurveto
          108 vlineto
          214 -30 vlineto
          -63 26 -96 callgsubr
          endchar
        </CharString>
        <CharString name="hungarumlaut">
          65 570 136 hstem
          190 236 vstem
          190 570 2 callsubr
        </CharString>
        <CharString name="hyphen">
          79 callsubr
        </CharString>
        <CharString name="hyphen.sc">
          -207 256 30 hstem
          40 180 vstem
          40 256 rmoveto
          180 30 -180 hlineto
          endchar
        </CharString>
        <CharString name="hyphen.sups">
          -243 622 25 hstem
          40 147 vstem
          40 622 rmoveto
          147 25 -147 hlineto
          endchar
        </CharString>
        <CharString name="i">
          9 callsubr
        </CharString>
        <CharString name="i.sups">
          -319 662 56 hstemhm
          48 56 -44 28 hintmask 11000000
          76 662 102 callgsubr
          hintmask 10100000
          -16 -392 rmoveto
          28 316 -28 hlineto
          endchar
        </CharString>
        <CharString name="i.trk">
          9 callsubr
        </CharString>
        <CharString name="iacute">
          -245 21 -21 478 -20 23 callsubr
          95 228 -45 callgsubr
        </CharString>
        <CharString name="icircumflex">
          19 callsubr
          216 32 23 callsubr
          -93 94 -26 callsubr
          51 callgsubr
        </CharString>
        <CharString name="idieresis">
          19 callsubr
          144 64 hstemhm
          3 64 29 30 29 64 hintmask 11101000
          96 hmoveto
          30 478 -30 hlineto
          hintmask 11111100
          -61 124 -97 callgsubr
        </CharString>
        <CharString name="igrave">
          -245 21 -21 478 -20 23 callsubr
          39 94 -20 callgsubr
        </CharString>
        <CharString name="imacron">
          19 callsubr
          150 28 23 callsubr
          -95 130 -65 callgsubr
          endchar
        </CharString>
        <CharString name="infinity">
          289 174 32 -18 28 224 32 -12 28 hstemhm
          42 30 612 30 hintmask 01011100
          178 188 rmoveto
          90 56 76 36 34 hvcurveto
          4 hlineto
          hintmask 10011100
          -70 59 55 -56 86 hhcurveto
          92 60 70 88 92 -62 64 -94 -89 -63 -70 -60 -44 hvcurveto
          -4 hlineto
          hintmask 01101100
          46 -36 -54 68 -84 hhcurveto
          -78 -64 -56 -86 hvcurveto
          hintmask 01011100
          -82 64 -60 72 vhcurveto
          hintmask 10011100
          200 144 rmoveto
          80 56 54 48 68 hhcurveto
          82 46 -57 -73 -68 -44 -56 -76 -66 -52 38 88 -68 hvcurveto
          hintmask 01101100
          -196 -116 rmoveto
          -58 -52 46 70 70 50 38 60 60 48 -44 -68 52 hvcurveto
          -60 -40 -54 -52 -66 hhcurveto
          endchar
        </CharString>
        <CharString name="integral">
          -181 -158 28 890 28 hstemhm
          124 30 16 28 hintmask 11010000
          66 -126 rmoveto
          -6 -26 rlineto
          -4 8 14 -2 18 hhcurveto
          80 18 92 122 hvcurveto
          hintmask 11110000
          134 -44 246 140 vvcurveto
          110 10 74 58 14 12 -2 -2 8 vhcurveto
          6 26 rlineto
          4 -6 -16 2 -16 hhcurveto
          -82 -18 -94 -120 hvcurveto
          hintmask 11010000
          -134 46 -248 -140 vvcurveto
          -110 -10 -72 -60 -14 -12 2 2 -8 vhcurveto
          endchar
        </CharString>
        <CharString name="iogonek">
          -245 149 callgsubr
          478 -20 142 68 hstemhm
          36 30 10 68 -48 30 hintmask 11100010
          96 hmoveto
          2 hlineto
          hintmask 11101010
          -30 -34 -32 -38 -50 vvcurveto
          -54 34 -83 callsubr
          -24 18 36 hvcurveto
          hintmask 11100010
          164 callsubr
          hintmask 11110100
          14 122 0 callgsubr
          endchar
        </CharString>
        <CharString name="iogonek.d">
          -245 149 callgsubr
          478 -20 hstemhm
          36 30 30 30 hintmask 11101000
          96 hmoveto
          2 hlineto
          hintmask 11111000
          -30 -34 -32 -38 -50 vvcurveto
          -54 34 -83 callsubr
          -24 18 36 hvcurveto
          hintmask 11101000
          164 callsubr
          endchar
        </CharString>
        <CharString name="itilde">
          19 callsubr
          124 167 callsubr
          -7 24 79 30 79 24 hintmask 11011110
          96 hmoveto
          30 478 -30 hlineto
          -103 104 1 callgsubr
          hintmask 11111110
          -66 callsubr
          hintmask 11011110
          -41 callgsubr
          endchar
        </CharString>
        <CharString name="j">
          113 callgsubr
          142 68 hstemhm
          78 68 -50 30 hintmask 10110100
          72 callgsubr
          hintmask 01110100
          -8 -26 rlineto
          hintmask 10110100
          60 callgsubr
          hintmask 10111000
          16 122 0 callgsubr
          endchar
        </CharString>
        <CharString name="j.sups">
          -315 118 28 516 56 hstemhm
          50 56 -44 28 hintmask 10010000
          20 118 rmoveto
          46 24 28 70 hvcurveto
          370 -28 -374 vlineto
          -40 -8 -26 -36 -14 -6 2 4 -10 vhcurveto
          -8 -26 rlineto
          -6 16 8 -2 16 hhcurveto
          hintmask 11100000
          58 544 102 callgsubr
          endchar
        </CharString>
        <CharString name="jcircumflex">
          113 callgsubr
          216 32 hstemhm
          96 30 hintmask 10111000
          72 callgsubr
          hintmask 01111000
          -8 -26 rlineto
          hintmask 10111000
          60 callgsubr
          -93 94 -26 callsubr
          51 callgsubr
        </CharString>
        <CharString name="k">
          -15 21 89 callsubr
          264 -20 hstem
          96 -14 callsubr
          endchar
        </CharString>
        <CharString name="k.sups">
          -157 270 474 hstem
          60 94 callgsubr
          82 hlineto
          72 86 110 -168 rlineto
          34 hlineto
          -124 190 106 126 rlineto
          -36 hlineto
          -158 -188 rlineto
          -4 346 -28 hlineto
          endchar
        </CharString>
        <CharString name="kgreenlandic">
          -15 21 -21 478 -20 hstem
          96 -6 callsubr
          304 -30 hlineto
          endchar
        </CharString>
        <CharString name="l">
          -237 -12 28 706 -20 hstem
          96 30 vstem
          -69 callsubr
          endchar
        </CharString>
        <CharString name="l.a">
          103 callgsubr
          endchar
        </CharString>
        <CharString name="l.supa">
          -319 270 474 hstem
          60 94 callgsubr
          474 -28 hlineto
          endchar
        </CharString>
        <CharString name="l.sups">
          -309 262 26 hstem
          60 28 vstem
          60 316 rmoveto
          -36 12 -18 30 10 6 2 2 6 vhcurveto
          -6 24 rlineto
          -2 -6 -4 0 -4 hhcurveto
          -10 -6 6 16 hvcurveto
          434 -28 vlineto
          endchar
        </CharString>
        <CharString name="lacute">
          -237 -12 28 706 -20 hstem
          96 30 vstem
          -69 callsubr
          112 142 -68 callsubr
          endchar
        </CharString>
        <CharString name="lacute.a">
          103 callgsubr
          114 142 -68 callsubr
          endchar
        </CharString>
        <CharString name="lcaron">
          -245 -12 28 706 -20 hstem
          96 30 67 29 vstem
          -69 callsubr
          120 -174 -2 callsubr
        </CharString>
        <CharString name="lcaron.a">
          163 callsubr
          67 29 109 callgsubr
          722 -30 hlineto
          120 -174 -2 callsubr
        </CharString>
        <CharString name="ldot">
          -179 -12 28 268 78 360 -20 hstem
          96 30 92 72 vstem
          -69 callsubr
          122 -400 rmoveto
          -61 callgsubr
          endchar
        </CharString>
        <CharString name="ldot.a">
          -179 21 -21 284 78 360 -20 hstem
          96 30 93 72 109 callgsubr
          722 -30 hlineto
          123 -400 rmoveto
          -61 callgsubr
          endchar
        </CharString>
        <CharString name="less">
          5 152 360 hstem
          34 32 vstem
          34 314 rmoveto
          50 callsubr
        </CharString>
        <CharString name="lessequal">
          5 0 28 hstem
          34 32 vstem
          34 hmoveto
          84 callsubr
          286 vmoveto
          50 callsubr
        </CharString>
        <CharString name="lira">
          5 0 28 222 28 68 28 250 28 hstemhm
          58 60 -6 32 20 30 hintmask 11111010
          144 callgsubr
          11 -1 11 -1 10 vhcurveto
          154 28 -157 hlineto
          -4 24 -6 22 -6 22 rrcurveto
          173 28 hlineto
          hintmask 11110110
          -181 hlineto
          -11 38 -10 36 40 67 callgsubr
          -39 9 -36 11 -37 hvcurveto
          -14 hlineto
          -64 -4 rlineto
          -24 86 vlineto
          7 -22 6 -23 5 -23 rrcurveto
          -40 hlineto
          -64 -4 rlineto
          -24 vlineto
          hintmask 11111010
          108 hlineto
          1 -11 1 -10 -11 131 callgsubr
        </CharString>
        <CharString name="logicalnot">
          5 316 28 hstem
          406 32 vstem
          34 316 rmoveto
          372 -204 32 232 -404 hlineto
          endchar
        </CharString>
        <CharString name="lozenge">
          25 -10 26 628 26 hstem
          60 372 vstem
          226 -10 rmoveto
          40 hlineto
          166 340 -166 340 rlineto
          -40 hlineto
          -166 -340 rlineto
          184 -314 rmoveto
          -70 142 -80 172 80 170 70 144 rlineto
          4 hlineto
          70 -144 80 -170 -80 -172 -70 -142 rlineto
          endchar
        </CharString>
        <CharString name="lslash">
          -237 -12 28 706 -20 hstem
          96 30 vstem
          200 444 rmoveto
          32 vlineto
          110 callsubr
          -324 vlineto
          -46 18 -18 30 12 6 2 2 8 vhcurveto
          -6 26 rlineto
          -2 -10 -4 0 -4 hhcurveto
          -12 -8 10 20 hvcurveto
          348 vlineto
          endchar
        </CharString>
        <CharString name="lslash.a">
          163 callsubr
          vstem
          200 476 rmoveto
          110 callsubr
          -376 30 394 vlineto
          74 50 rlineto
          endchar
        </CharString>
        <CharString name="m">
          339 126 callsubr
          hstemhm
          96 30 266 30 266 30 cntrmask 00011100
          hintmask 11011100
          -3 callsubr
          hintmask 10111100
          85 callsubr
          endchar
        </CharString>
        <CharString name="m.sups">
          77 568 26 hstem
          60 28 172 28 172 94 callgsubr
          238 hlineto
          42 40 28 18 30 hhcurveto
          58 16 -40 -60 hvcurveto
          -198 28 238 vlineto
          42 40 28 18 30 hhcurveto
          58 16 112 callsubr
          -26 50 -70 -42 -38 -30 -34 -32 vhcurveto
          44 -12 -32 20 -44 hhcurveto
          -42 -32 -24 -32 -28 hvcurveto
          -4 hlineto
          -4 48 rlineto
          -22 hlineto
          endchar
        </CharString>
        <CharString name="macron">
          65 608 28 hstem
          156 220 vstem
          156 608 -65 callgsubr
          endchar
        </CharString>
        <CharString name="minus">
          5 316 28 hstem
          34 404 vstem
          34 316 rmoveto
          84 callsubr
          endchar
        </CharString>
        <CharString name="multiply">
          5 138 384 hstem
          52 368 vstem
          72 138 rmoveto
          164 172 164 -172 20 22 -164 170 164 170 -20 22 -164 -172 -164 172 -20 -22 164 -170 -164 -170 rlineto
          endchar
        </CharString>
        <CharString name="n">
          73 callsubr
          hstemhm
          96 30 282 30 hintmask 11011000
          -86 callsubr
          -50 -50 vhcurveto
          -2 hlineto
          hintmask 10111000
          85 callsubr
          endchar
        </CharString>
        <CharString name="n.sups">
          -111 79 callgsubr
          32 hhcurveto
          62 14 112 callsubr
          -24 50 -76 -42 -38 -24 -32 -30 vhcurveto
          -4 hlineto
          -4 48 rlineto
          -22 hlineto
          endchar
        </CharString>
        <CharString name="nacute">
          73 callsubr
          hstemhm
          96 30 282 30 hintmask 11011000
          -86 callsubr
          -50 -50 vhcurveto
          -2 hlineto
          hintmask 10111000
          85 callsubr
          263 228 -45 callgsubr
        </CharString>
        <CharString name="napostrophe">
          245 126 callsubr
          176 66 hstemhm
          120 30 123 30 282 30 hintmask 11011110
          72 494 -69 callgsubr
          247 -110 rmoveto
          hintmask 10111110
          -4 76 rlineto
          -26 -478 30 hlineto
          hintmask 11011110
          366 vlineto
          -78 callgsubr
          -50 -50 vhcurveto
          endchar
        </CharString>
        <CharString name="nbspace.frac">
          -335 endchar
        </CharString>
        <CharString name="ncaron">
          73 callsubr
          114 32 hstemhm
          96 30 282 30 hintmask 11011100
          -86 callsubr
          -50 -50 vhcurveto
          -2 hlineto
          hintmask 10111100
          85 callsubr
          169 94 -78 callsubr
        </CharString>
        <CharString name="nine">
          5 -12 28 240 28 340 28 hstem
          44 138 callgsubr
          222 -20 callsubr
        </CharString>
        <CharString name="nine.dnom">
          -107 -12 28 callgsubr
          174 -68 callgsubr
        </CharString>
        <CharString name="nine.numr">
          -107 258 28 callgsubr
          444 -68 callgsubr
        </CharString>
        <CharString name="nine.onum">
          29 -82 28 224 28 356 28 hstem
          42 32 320 32 vstem
          224 -21 callgsubr
        </CharString>
        <CharString name="nine.pnum">
          29 -12 28 240 28 340 28 hstem
          52 138 callgsubr
          230 -20 callsubr
        </CharString>
        <CharString name="nine.sc">
          -8 -12 28 186 28 264 28 hstem
          53 32 276 33 vstem
          215 230 rmoveto
          -92 -38 56 76 75 52 57 69 102 46 -77 -110 6 hvcurveto
          -56 -47 -56 -21 -42 hhcurveto
          -149 -194 rmoveto
          -29 28 38 -19 54 hhcurveto
          109 99 75 217 154 -71 88 -116 -83 -71 -67 -93 -103 58 -57 100 57 53 29 43 40 hvcurveto
          -192 -2 -80 -66 -94 hhcurveto
          -39 -34 13 28 -28 hvcurveto
          endchar
        </CharString>
        <CharString name="nine.subs">
          -107 -182 28 callgsubr
          4 -68 callgsubr
        </CharString>
        <CharString name="nine.sups">
          -107 428 28 callgsubr
          614 -68 callgsubr
        </CharString>
        <CharString name="nine.tnum">
          5 -82 28 224 28 356 28 hstem
          34 32 320 32 vstem
          216 -21 callgsubr
        </CharString>
        <CharString name="notequal">
          145 callgsubr
          68 86 rmoveto
          34 hlineto
          80 130 rlineto
          256 28 -238 hlineto
          106 172 rlineto
          132 28 -114 hlineto
          80 130 rlineto
          -34 hlineto
          -80 -130 rlineto
          -256 -28 238 hlineto
          -106 -172 rlineto
          -132 -28 114 hlineto
          endchar
        </CharString>
        <CharString name="ntilde">
          73 callsubr
          124 167 callsubr
          96 30 35 55 callgsubr
          11 30 hintmask 1100111010000000
          -86 callsubr
          -50 -50 vhcurveto
          -2 hlineto
          hintmask 1010111010000000
          85 callsubr
          65 104 1 callgsubr
          hintmask 1101111110000000
          -66 callsubr
          hintmask 1100111010000000
          -35 -27 56 -48 hhcurveto
          hintmask 1010111010000000
          -47 -15 -46 -36 -2 hvcurveto
          endchar
        </CharString>
        <CharString name="numbersign">
          5 21 -21 218 28 178 28 198 -20 hstem
          36 406 vstem
          94 hmoveto
          28 hlineto
          26 218 rlineto
          156 hlineto
          -26 -218 rlineto
          28 hlineto
          26 218 rlineto
          90 28 -86 hlineto
          22 178 rlineto
          84 28 -82 hlineto
          26 198 -52 callgsubr
          -26 -198 rlineto
          -156 hlineto
          26 198 -52 callgsubr
          -26 -198 rlineto
          -92 -28 90 hlineto
          -22 -178 rlineto
          -88 -28 84 hlineto
          32 28 rmoveto
          22 178 rlineto
          156 hlineto
          -22 -178 rlineto
          endchar
        </CharString>
        <CharString name="o">
          14 callsubr
          hstem
          54 32 360 32 vstem
          -104 callgsubr
          endchar
        </CharString>
        <CharString name="o.sups">
          5 callgsubr
        </CharString>
        <CharString name="oacute">
          14 callsubr
          hstem
          54 32 360 32 vstem
          -104 callgsubr
          260 468 -45 callgsubr
        </CharString>
        <CharString name="ocircumflex">
          14 callsubr
          184 32 hstem
          54 32 360 32 vstem
          -104 callgsubr
          72 334 -26 callsubr
          51 callgsubr
        </CharString>
        <CharString name="odieresis">
          14 callsubr
          112 64 hstem
          54 32 72 64 88 64 72 32 vstem
          -104 callgsubr
          104 364 -97 callgsubr
        </CharString>
        <CharString name="oe">
          385 -12 113 callsubr
          352 30 316 30 vstem
          86 238 rmoveto
          132 76 92 100 102 74 -92 -132 -132 -74 -90 -102 -100 -76 90 132 vhcurveto
          -32 hmoveto
          -158 98 -92 110 86 68 50 98 36 vhcurveto
          -90 34 72 -58 88 hhcurveto
          72 40 24 22 36 hvcurveto
          -46 callgsubr
          -102 -80 94 128 2 hvcurveto
          344 hlineto
          2 12 0 10 10 vvcurveto
          142 -70 78 -110 -80 -68 -58 -92 -34 vhcurveto
          100 -34 -78 50 -78 hhcurveto
          -110 -98 -92 -160 hvcurveto
          414 26 rmoveto
          116 10 72 82 84 hhcurveto
          90 60 78 callsubr
          endchar
        </CharString>
        <CharString name="ogonek">
          65 -202 28 hstem
          216 30 vstem
          216 8 callsubr
          46 48 34 hvcurveto
          -38 hlineto
          -38 -30 -34 -46 -50 vvcurveto
          endchar
        </CharString>
        <CharString name="ograve">
          14 callsubr
          hstem
          54 32 360 32 vstem
          -104 callgsubr
          204 334 -20 callgsubr
        </CharString>
        <CharString name="ohorn">
          14 callsubr
          hstem
          54 32 360 32 vstem
          266 16 -93 callsubr
        </CharString>
        <CharString name="ohungarumlaut">
          14 callsubr
          80 136 hstem
          54 32 360 32 vstem
          -104 callgsubr
          104 332 2 callsubr
        </CharString>
        <CharString name="omacron">
          14 callsubr
          118 28 hstem
          54 32 360 32 vstem
          -104 callgsubr
          70 370 -65 callgsubr
          endchar
        </CharString>
        <CharString name="one">
          5 0 28 552 118 callgsubr
          612 26 callgsubr
          -552 -152 vlineto
          endchar
        </CharString>
        <CharString name="one.dnom">
          -107 330 105 callgsubr
          hmoveto
          -17 callgsubr
          endchar
        </CharString>
        <CharString name="one.numr">
          -107 600 105 callgsubr
          270 104 callgsubr
        </CharString>
        <CharString name="one.onum">
          -131 99 callsubr
          132 callsubr
          570 26 callgsubr
          vlineto
          endchar
        </CharString>
        <CharString name="one.pnum">
          -131 21 -21 580 132 callsubr
          640 26 callgsubr
          vlineto
          endchar
        </CharString>
        <CharString name="one.sc">
          -143 21 -21 457 22 -22 53 hstemhm
          162 30 hintmask 10110000
          162 hmoveto
          30 510 -26 hlineto
          hintmask 11010000
          -26 -13 -35 -11 -45 -7 rrcurveto
          hintmask 10110000
          -22 102 vlineto
          endchar
        </CharString>
        <CharString name="one.subs">
          -107 160 105 callgsubr
          -170 104 callgsubr
        </CharString>
        <CharString name="one.sups">
          -107 770 105 callgsubr
          440 104 callgsubr
        </CharString>
        <CharString name="one.tnum">
          5 0 28 482 118 callgsubr
          542 26 callgsubr
          -482 -152 vlineto
          endchar
        </CharString>
        <CharString name="oneeighth">
          311 -12 26 360 28 198 22 hstemhm
          158 28 282 48 callgsubr
          hintmask 11111001
          158 270 rmoveto
          -17 callgsubr
          30 -612 -46 callsubr
          342 110 -54 callsubr
          hintmask 11110110
          -60 callsubr
          hintmask 11111001
          -51 callsubr
          hintmask 11110110
          -54 callgsubr
          hintmask 11111001
          -40 -22 -36 -40 -52 vvcurveto
          endchar
        </CharString>
        <CharString name="onehalf">
          311 0 26 -17 -21 388 26 198 22 hstemhm
          158 28 290 48 148 30 hintmask 10111110
          158 270 rmoveto
          -17 callgsubr
          hintmask 01111110
          26 -612 -46 callsubr
          hintmask 10111110
          324 12 rmoveto
          -70 callsubr
          endchar
        </CharString>
        <CharString name="onequarter">
          291 0 144 -135 -21 130 26 196 50 210 22 hstemhm
          158 28 436 28 hintmask 01111110
          186 270 rmoveto
          390 -26 vlineto
          -22 -18 -26 -12 -36 -8 rrcurveto
          -22 82 -330 vlineto
          388 402 rmoveto
          66 callsubr
          32 hlineto
          370 684 rlineto
          -92 -528 -52 callsubr
          vlineto
          hintmask 10011110
          -118 28 vlineto
          hintmask 01111110
          118 58 vlineto
          endchar
        </CharString>
        <CharString name="onethird">
          311 -12 26 172 24 166 26 198 22 hstemhm
          158 28 490 30 -14 30 hintmask 11111010
          158 270 rmoveto
          -17 callgsubr
          20 -612 -46 callsubr
          314 74 rmoveto
          -38 callsubr
          hintmask 11111100
          44 16 34 34 50 vvcurveto
          64 -52 38 -64 -48 -40 -28 -34 -26 169 callsubr
          32 26 34 22 32 hhcurveto
          54 34 -32 -46 -46 -46 -42 -82 hvcurveto
          -24 vlineto
          hintmask 11111010
          -2 callgsubr
        </CharString>
        <CharString name="ordfeminine">
          -34 callgsubr
        </CharString>
        <CharString name="ordfeminine.a">
          -22 callsubr
        </CharString>
        <CharString name="ordmasculine">
          5 callgsubr
        </CharString>
        <CharString name="oslash">
          65 -12 28 -20 20 446 28 -10 -20 hstemhm
          54 32 360 32 hintmask 10101100
          406 384 rmoveto
          25 -38 15 -50 -58 vvcurveto
          -132 -78 -90 -102 -48 -42 20 34 -32 vhcurveto
          -18 23 rmoveto
          -25 37 -15 50 58 vvcurveto
          132 78 92 102 48 42 -20 -35 32 vhcurveto
          hintmask 10011100
          98 73 rmoveto
          hintmask 01101100
          -22 18 -56 -67 rlineto
          38 -38 -50 21 -54 hhcurveto
          -35 callsubr
          -71 20 -57 32 -42 hvcurveto
          -60 -72 rlineto
          hintmask 10011100
          22 -18 57 68 rlineto
          -38 38 50 -20 53 hhcurveto
          114 98 92 158 71 -19 58 -32 42 hvcurveto
          endchar
        </CharString>
        <CharString name="otilde">
          87 callgsubr
          hintmask 11011111
          -104 callgsubr
          62 344 1 callgsubr
          hintmask 11111111
          -66 callsubr
          hintmask 11011111
          -41 callgsubr
          endchar
        </CharString>
        <CharString name="p">
          73 -201 -21 210 140 callgsubr
          -12 -20 hstemhm
          96 30 328 32 hintmask 11101100
          126 48 rmoveto
          -38 52 50 27 callgsubr
          -58 -36 -38 -48 hvcurveto
          -2 hlineto
          hintmask 11011100
          -4 62 rlineto
          -26 -700 30 180 hlineto
          124 vmoveto
          hintmask 11101100
          296 vlineto
          54 62 54 40 callgsubr
          hvcurveto
          hintmask 11011100
          -38 -54 18 48 -58 hvcurveto
          endchar
        </CharString>
        <CharString name="p.sups">
          -103 77 callsubr
          60 28 208 30 vstem
          60 130 rmoveto
          28 112 hlineto
          -2 59 rlineto
          -25 30 40 121 callgsubr
          -24 -28 hvcurveto
          -4 hlineto
          -6 40 rlineto
          -22 hlineto
          28 -256 64 callsubr
        </CharString>
        <CharString name="paragraph">
          31 660 -20 hstem
          42 274 54 32 vstem
          370 -80 rmoveto
          32 740 -32 hlineto
          -80 -410 rmoveto
          26 410 -44 hlineto
          -136 -94 -58 -148 -148 100 -56 148 hvcurveto
          endchar
        </CharString>
        <CharString name="parenleft">
          -197 -174 904 hstem
          90 28 vstem
          222 -174 rmoveto
          18 12 rlineto
          -80 126 -42 154 160 vvcurveto
          160 42 154 80 126 vhcurveto
          -18 12 rlineto
          -82 -132 -50 -144 -176 vvcurveto
          -176 50 -144 82 -132 vhcurveto
          endchar
        </CharString>
        <CharString name="parenleft.dnom">
          -255 -70 105 callsubr
          -70 -32 callgsubr
        </CharString>
        <CharString name="parenleft.numr">
          -255 200 105 callsubr
          200 -32 callgsubr
        </CharString>
        <CharString name="parenleft.subs">
          -255 -240 105 callsubr
          -240 -32 callgsubr
        </CharString>
        <CharString name="parenleft.sups">
          -255 370 105 callsubr
          370 -32 callgsubr
        </CharString>
        <CharString name="parenright">
          -197 -174 904 hstem
          152 28 vstem
          30 -162 rmoveto
          18 -12 rlineto
          82 132 50 144 176 vvcurveto
          176 -50 144 -82 132 vhcurveto
          -18 -12 rlineto
          80 -126 42 -154 -160 vvcurveto
          -160 -42 -154 -80 -126 vhcurveto
          endchar
        </CharString>
        <CharString name="parenright.dnom">
          -255 -70 106 callgsubr
          -56 -33 callgsubr
        </CharString>
        <CharString name="parenright.numr">
          -255 200 106 callgsubr
          214 -33 callgsubr
        </CharString>
        <CharString name="parenright.subs">
          -255 -240 106 callgsubr
          -226 -33 callgsubr
        </CharString>
        <CharString name="parenright.sups">
          -255 370 106 callgsubr
          384 -33 callgsubr
        </CharString>
        <CharString name="partialdiff">
          21 -12 28 352 28 248 28 hstem
          34 32 354 32 vstem
          206 16 rmoveto
          -76 -64 66 96 98 52 92 132 51 57 -23 -64 57 hvcurveto
          -150 -19 -72 -115 -118 hhcurveto
          -70 574 rmoveto
          34 32 44 20 44 hhcurveto
          92 72 -70 -212 -15 0 -15 -1 -14 hvcurveto
          48 -46 -61 30 -60 hhcurveto
          -142 -76 -92 -128 -118 82 -70 88 150 98 152 222 226 -86 84 -108 -56 -50 -24 -38 -34 hvcurveto
          endchar
        </CharString>
        <CharString name="percent">
          331 -12 26 244 26 92 26 244 97 callgsubr
          162 30 216 30 vstem
          180 258 rmoveto
          -90 callsubr
          48 -296 -46 callsubr
          422 hmoveto
          -90 callsubr
          endchar
        </CharString>
        <CharString name="period">
          -259 -12 78 hstem
          68 72 vstem
          68 26 rmoveto
          -61 callgsubr
          endchar
        </CharString>
        <CharString name="period.dnom">
          -315 -8 129 callsubr
          26 rmoveto
          -12 callsubr
          endchar
        </CharString>
        <CharString name="period.numr">
          -315 262 129 callsubr
          296 rmoveto
          -12 callsubr
          endchar
        </CharString>
        <CharString name="period.subs">
          -315 -178 129 callsubr
          -144 rmoveto
          -12 callsubr
          endchar
        </CharString>
        <CharString name="period.sups">
          -315 432 129 callsubr
          466 rmoveto
          -12 callsubr
          endchar
        </CharString>
        <CharString name="periodcentered">
          -259 284 78 hstem
          68 72 vstem
          68 322 rmoveto
          -61 callgsubr
          endchar
        </CharString>
        <CharString name="perthousand">
          683 -12 26 244 26 92 26 244 97 callgsubr
          158 30 216 30 80 30 216 30 vstem
          224 40 callsubr
          -12 270 rmoveto
          -90 callsubr
          434 -296 rmoveto
          -90 callsubr
          356 -26 rmoveto
          -90 callsubr
          endchar
        </CharString>
        <CharString name="peseta">
          5 21 -21 270 28 148 28 138 162 callsubr
          298 rmoveto
          148 230 vlineto
          -101 -7 -67 -47 -118 hhcurveto
          -38 314 rmoveto
          38 hlineto
          119 68 -35 -103 5 hvcurveto
          -230 hlineto
          328 hmoveto
          -66 hlineto
          119 -6 -84 47 -122 hhcurveto
          -80 -166 hlineto
          -82 -4 rlineto
          -24 82 -446 30 270 50 vlineto
          121 84 57 119 7 hvcurveto
          66 hlineto
          endchar
        </CharString>
</ttFont>
